<svg width="21" height="21" viewBox="0 0 21 21" fill="none" xmlns="http://www.w3.org/2000/svg">
<g clip-path="url(#clip0_3722_7846)">
<path d="M4.50928 0.236328C4.67504 0.236328 4.83401 0.302176 4.95122 0.419386C5.06843 0.536597 5.13428 0.695568 5.13428 0.861328V1.48633H15.1343V0.861328C15.1343 0.695568 15.2001 0.536597 15.3173 0.419386C15.4345 0.302176 15.5935 0.236328 15.7593 0.236328C15.925 0.236328 16.084 0.302176 16.2012 0.419386C16.3184 0.536597 16.3843 0.695568 16.3843 0.861328V1.48633H17.6343C18.2973 1.48633 18.9332 1.74972 19.402 2.21856C19.8709 2.6874 20.1343 3.32329 20.1343 3.98633V17.7363C20.1343 18.3994 19.8709 19.0353 19.402 19.5041C18.9332 19.9729 18.2973 20.2363 17.6343 20.2363H2.63428C1.97124 20.2363 1.33535 19.9729 0.86651 19.5041C0.397669 19.0353 0.134277 18.3994 0.134277 17.7363V3.98633C0.134277 3.32329 0.397669 2.6874 0.86651 2.21856C1.33535 1.74972 1.97124 1.48633 2.63428 1.48633H3.88428V0.861328C3.88428 0.695568 3.95013 0.536597 4.06734 0.419386C4.18455 0.302176 4.34352 0.236328 4.50928 0.236328ZM2.63428 2.73633C2.30276 2.73633 1.98481 2.86802 1.75039 3.10244C1.51597 3.33686 1.38428 3.65481 1.38428 3.98633V17.7363C1.38428 18.0678 1.51597 18.3858 1.75039 18.6202C1.98481 18.8546 2.30276 18.9863 2.63428 18.9863H17.6343C17.9658 18.9863 18.2837 18.8546 18.5182 18.6202C18.7526 18.3858 18.8843 18.0678 18.8843 17.7363V3.98633C18.8843 3.65481 18.7526 3.33686 18.5182 3.10244C18.2837 2.86802 17.9658 2.73633 17.6343 2.73633H2.63428Z" fill="#1F2D3D"/>
<path d="M3.25928 5.23633C3.25928 5.07057 3.32513 4.9116 3.44234 4.79439C3.55955 4.67718 3.71852 4.61133 3.88428 4.61133H16.3843C16.55 4.61133 16.709 4.67718 16.8262 4.79439C16.9434 4.9116 17.0093 5.07057 17.0093 5.23633V6.48633C17.0093 6.65209 16.9434 6.81106 16.8262 6.92827C16.709 7.04548 16.55 7.11133 16.3843 7.11133H3.88428C3.71852 7.11133 3.55955 7.04548 3.44234 6.92827C3.32513 6.81106 3.25928 6.65209 3.25928 6.48633V5.23633Z" fill="#1F2D3D"/>
<path d="M13.8843 16.9863C14.6799 16.9863 15.443 16.6703 16.0056 16.1076C16.5682 15.545 16.8843 14.782 16.8843 13.9863C16.8843 13.1907 16.5682 12.4276 16.0056 11.865C15.443 11.3024 14.6799 10.9863 13.8843 10.9863C13.0886 10.9863 12.3256 11.3024 11.763 11.865C11.2003 12.4276 10.8843 13.1907 10.8843 13.9863C10.8843 14.782 11.2003 15.545 11.763 16.1076C12.3256 16.6703 13.0886 16.9863 13.8843 16.9863ZM13.8843 10.2363C14.3767 10.2363 14.8644 10.3333 15.3193 10.5218C15.7743 10.7102 16.1877 10.9865 16.5359 11.3347C16.8841 11.6829 17.1604 12.0963 17.3488 12.5513C17.5373 13.0062 17.6343 13.4939 17.6343 13.9863C17.6343 14.9809 17.2392 15.9347 16.5359 16.638C15.8327 17.3412 14.8788 17.7363 13.8843 17.7363C11.8105 17.7363 10.1343 16.0488 10.1343 13.9863C10.1343 12.9918 10.5294 12.0379 11.2326 11.3347C11.9359 10.6314 12.8897 10.2363 13.8843 10.2363ZM14.0718 12.1113V14.0801L15.7593 15.0813L15.478 15.5426L13.5093 14.3613V12.1113H14.0718Z" fill="#1F2D3D"/>
</g>
<defs>
<clipPath id="clip0_3722_7846">
<rect width="20" height="20" fill="white" transform="translate(0.134277 0.236328)"/>
</clipPath>
</defs>
</svg>
