<svg width="35" height="35" viewBox="0 0 35 35" fill="none" xmlns="http://www.w3.org/2000/svg">
    <path
        d="M17.3139 32.2632C8.95095 32.2632 2.15344 25.4657 2.15344 17.1028C2.15344 8.7399 8.95095 1.94238 17.3139 1.94238C25.6768 1.94238 32.4743 8.7399 32.4743 17.1028C32.4743 25.4657 25.6768 32.2632 17.3139 32.2632ZM17.3139 4.05779C10.1215 4.05779 4.26885 9.91042 4.26885 17.1028C4.26885 24.2952 10.1215 30.1478 17.3139 30.1478C24.5063 30.1478 30.3589 24.2952 30.3589 17.1028C30.3589 9.91042 24.5063 4.05779 17.3139 4.05779Z"
        fill="#113DBC" />
    <path
        d="M22.5459 22.6446C22.3626 22.6446 22.1793 22.6023 22.01 22.4895L17.6382 19.8805C16.5523 19.2317 15.7484 17.8074 15.7484 16.5522V10.7701C15.7484 10.1919 16.2279 9.7124 16.8061 9.7124C17.3843 9.7124 17.8638 10.1919 17.8638 10.7701V16.5522C17.8638 17.0599 18.2869 17.8074 18.7241 18.0612L23.0959 20.6702C23.6036 20.9664 23.7588 21.6151 23.4626 22.1228C23.2511 22.4613 22.8985 22.6446 22.5459 22.6446Z"
        fill="#113DBC" />
</svg>
