<svg width="22" height="17" viewBox="0 0 22 17" fill="none" xmlns="http://www.w3.org/2000/svg">
<path d="M21.345 16.8311H8.62767C8.54226 16.8329 8.45735 16.8176 8.37792 16.786C8.2985 16.7545 8.22615 16.7074 8.16512 16.6475C8.10409 16.5876 8.05561 16.5161 8.02252 16.4372C7.98943 16.3583 7.97239 16.2736 7.97241 16.188V14.5935C7.97241 13.5736 8.37677 12.5955 9.09652 11.8744C9.81627 11.1532 10.7925 10.7481 11.8104 10.7481H18.1891C19.2023 10.7551 20.1717 11.1634 20.8857 11.8838C21.5996 12.6042 22.0003 13.5783 22.0003 14.5935V16.188C22.0003 16.2736 21.9833 16.3583 21.9502 16.4372C21.9171 16.5161 21.8686 16.5876 21.8076 16.6475C21.7466 16.7074 21.6742 16.7545 21.5948 16.786C21.5154 16.8176 21.4304 16.8329 21.345 16.8311ZM9.30967 15.4912H20.663V14.5533C20.6595 13.8792 20.3907 13.2337 19.915 12.7571C19.4392 12.2804 18.795 12.0111 18.1222 12.0076H11.7836C11.1121 12.0111 10.4692 12.2809 9.99563 12.7579C9.52203 13.2349 9.25617 13.8804 9.25618 14.5533L9.30967 15.4912ZM14.9797 8.85885C14.2195 8.85883 13.4764 8.6326 12.8447 8.20887C12.213 7.78513 11.7211 7.18296 11.4314 6.47874C11.1417 5.77451 11.0673 4.99995 11.2175 4.25329C11.3678 3.50663 11.736 2.82149 12.2754 2.28478C12.8149 1.74807 13.5012 1.38396 14.2474 1.23862C14.9937 1.09328 15.7662 1.17327 16.467 1.46844C17.1678 1.7636 17.7654 2.26065 18.1838 2.89654C18.6023 3.53244 18.8229 4.27853 18.8176 5.04021C18.8105 6.05543 18.4031 7.02666 17.6841 7.74203C16.9651 8.45741 15.9929 8.85887 14.9797 8.85885ZM14.9797 2.46765C14.4777 2.46503 13.9863 2.61143 13.5673 2.88838C13.1483 3.16533 12.8206 3.56042 12.6255 4.02379C12.4303 4.48717 12.3766 4.99806 12.4709 5.49202C12.5653 5.98598 12.8036 6.44086 13.1557 6.79927C13.5079 7.15768 13.958 7.40356 14.4495 7.50589C14.9409 7.60821 15.4516 7.5624 15.9171 7.37422C16.3826 7.18604 16.782 6.86394 17.065 6.44855C17.348 6.03316 17.5018 5.5431 17.5071 5.04021C17.5106 4.70477 17.4479 4.37194 17.3227 4.06085C17.1974 3.74976 17.012 3.46654 16.7771 3.22748C16.5423 2.98842 16.2626 2.79822 15.9541 2.66782C15.6456 2.53742 15.3145 2.4694 14.9797 2.46765Z" fill="#322F37"/>
<path d="M10.5 2.08789H2.33987C1.98452 2.08789 1.64371 2.21695 1.39244 2.44669C1.14116 2.67643 1 2.98801 1 3.31291V10.663C1 10.9879 1.14116 11.2995 1.39244 11.5292C1.64371 11.759 1.98452 11.888 2.33987 11.888H6.89544M1 4.53793H8.5" stroke="#322F37" stroke-width="1.2" stroke-linecap="round" stroke-linejoin="round"/>
<path d="M3.34497 1.78048V1.16797" stroke="#322F37" stroke-width="1.2" stroke-linecap="square"/>
<path d="M9.37476 1.78048V1.16797" stroke="#322F37" stroke-width="1.2" stroke-linecap="square"/>
</svg>
