<svg width="41" height="41" viewBox="0 0 41 41" fill="none" xmlns="http://www.w3.org/2000/svg">
    <mask id="mask0_119_4671" style="mask-type:alpha" maskUnits="userSpaceOnUse" x="0" y="0" width="41" height="41">
        <circle cx="20.9512" cy="20.9263" r="20" fill="#ECF3F5" />
    </mask>
    <g mask="url(#mask0_119_4671)">
        <rect x="0.951294" y="0.92627" width="39.9999" height="39.9999" fill="#ECF3F5" />
    </g>
    <path
        d="M20.9512 10.9263C18.3312 10.9263 16.2012 13.0563 16.2012 15.6763C16.2012 18.2463 18.2112 20.3263 20.8312 20.4163C20.9112 20.4063 20.9912 20.4063 21.0512 20.4163C21.0712 20.4163 21.0812 20.4163 21.1012 20.4163C21.1112 20.4163 21.1112 20.4163 21.1212 20.4163C23.6812 20.3263 25.6912 18.2463 25.7012 15.6763C25.7012 13.0563 23.5712 10.9263 20.9512 10.9263Z"
        fill="#8FA3A5" />
    <path
        d="M26.0312 23.0762C23.2412 21.2162 18.6912 21.2162 15.8812 23.0762C14.6112 23.9262 13.9112 25.0762 13.9112 26.3062C13.9112 27.5362 14.6112 28.6762 15.8712 29.5162C17.2712 30.4562 19.1112 30.9262 20.9512 30.9262C22.7912 30.9262 24.6312 30.4562 26.0312 29.5162C27.2912 28.6662 27.9912 27.5262 27.9912 26.2862C27.9812 25.0562 27.2912 23.9162 26.0312 23.0762Z"
        fill="#8FA3A5" />
</svg>
