<svg width="37" height="37" viewBox="0 0 37 37" fill="none" xmlns="http://www.w3.org/2000/svg">
    <rect x="0.402344" y="0.566895" width="36" height="36" rx="18" fill="#113DBC" />
    <path
        d="M11.4023 28.5669C10.8523 28.5669 10.3813 28.3712 9.98934 27.9799C9.59801 27.5879 9.40234 27.1169 9.40234 26.5669V12.5669C9.40234 12.0169 9.59801 11.5462 9.98934 11.1549C10.3813 10.7629 10.8523 10.5669 11.4023 10.5669H12.4023V8.56689H14.4023V10.5669H22.4023V8.56689H24.4023V10.5669H25.4023C25.9523 10.5669 26.4233 10.7629 26.8153 11.1549C27.2067 11.5462 27.4023 12.0169 27.4023 12.5669V26.5669C27.4023 27.1169 27.2067 27.5879 26.8153 27.9799C26.4233 28.3712 25.9523 28.5669 25.4023 28.5669H11.4023ZM11.4023 26.5669H25.4023V16.5669H11.4023V26.5669ZM11.4023 14.5669H25.4023V12.5669H11.4023V14.5669ZM18.4023 20.5669C18.119 20.5669 17.8817 20.4709 17.6903 20.2789C17.4983 20.0876 17.4023 19.8502 17.4023 19.5669C17.4023 19.2836 17.4983 19.0459 17.6903 18.8539C17.8817 18.6626 18.119 18.5669 18.4023 18.5669C18.6857 18.5669 18.9233 18.6626 19.1153 18.8539C19.3067 19.0459 19.4023 19.2836 19.4023 19.5669C19.4023 19.8502 19.3067 20.0876 19.1153 20.2789C18.9233 20.4709 18.6857 20.5669 18.4023 20.5669ZM14.4023 20.5669C14.119 20.5669 13.8813 20.4709 13.6893 20.2789C13.498 20.0876 13.4023 19.8502 13.4023 19.5669C13.4023 19.2836 13.498 19.0459 13.6893 18.8539C13.8813 18.6626 14.119 18.5669 14.4023 18.5669C14.6857 18.5669 14.9233 18.6626 15.1153 18.8539C15.3067 19.0459 15.4023 19.2836 15.4023 19.5669C15.4023 19.8502 15.3067 20.0876 15.1153 20.2789C14.9233 20.4709 14.6857 20.5669 14.4023 20.5669ZM22.4023 20.5669C22.119 20.5669 21.8817 20.4709 21.6903 20.2789C21.4983 20.0876 21.4023 19.8502 21.4023 19.5669C21.4023 19.2836 21.4983 19.0459 21.6903 18.8539C21.8817 18.6626 22.119 18.5669 22.4023 18.5669C22.6857 18.5669 22.923 18.6626 23.1143 18.8539C23.3063 19.0459 23.4023 19.2836 23.4023 19.5669C23.4023 19.8502 23.3063 20.0876 23.1143 20.2789C22.923 20.4709 22.6857 20.5669 22.4023 20.5669ZM18.4023 24.5669C18.119 24.5669 17.8817 24.4709 17.6903 24.2789C17.4983 24.0876 17.4023 23.8502 17.4023 23.5669C17.4023 23.2836 17.4983 23.0462 17.6903 22.8549C17.8817 22.6629 18.119 22.5669 18.4023 22.5669C18.6857 22.5669 18.9233 22.6629 19.1153 22.8549C19.3067 23.0462 19.4023 23.2836 19.4023 23.5669C19.4023 23.8502 19.3067 24.0876 19.1153 24.2789C18.9233 24.4709 18.6857 24.5669 18.4023 24.5669ZM14.4023 24.5669C14.119 24.5669 13.8813 24.4709 13.6893 24.2789C13.498 24.0876 13.4023 23.8502 13.4023 23.5669C13.4023 23.2836 13.498 23.0462 13.6893 22.8549C13.8813 22.6629 14.119 22.5669 14.4023 22.5669C14.6857 22.5669 14.9233 22.6629 15.1153 22.8549C15.3067 23.0462 15.4023 23.2836 15.4023 23.5669C15.4023 23.8502 15.3067 24.0876 15.1153 24.2789C14.9233 24.4709 14.6857 24.5669 14.4023 24.5669ZM22.4023 24.5669C22.119 24.5669 21.8817 24.4709 21.6903 24.2789C21.4983 24.0876 21.4023 23.8502 21.4023 23.5669C21.4023 23.2836 21.4983 23.0462 21.6903 22.8549C21.8817 22.6629 22.119 22.5669 22.4023 22.5669C22.6857 22.5669 22.923 22.6629 23.1143 22.8549C23.3063 23.0462 23.4023 23.2836 23.4023 23.5669C23.4023 23.8502 23.3063 24.0876 23.1143 24.2789C22.923 24.4709 22.6857 24.5669 22.4023 24.5669Z"
        fill="white" />
</svg>
