<svg width="21" height="21" viewBox="0 0 21 21" fill="none" xmlns="http://www.w3.org/2000/svg">
<path d="M7.25156 15.5L10.8516 11.9L14.4516 15.5L15.8516 14.1L12.2516 10.5L15.8516 6.9L14.4516 5.5L10.8516 9.1L7.25156 5.5L5.85156 6.9L9.45156 10.5L5.85156 14.1L7.25156 15.5ZM10.8516 20.5C9.46823 20.5 8.16823 20.2373 6.95156 19.712C5.7349 19.1867 4.67656 18.4743 3.77656 17.575C2.87656 16.675 2.16423 15.6167 1.63956 14.4C1.1149 13.1833 0.852229 11.8833 0.851562 10.5C0.851562 9.11667 1.11423 7.81667 1.63956 6.6C2.1649 5.38333 2.87723 4.325 3.77656 3.425C4.67656 2.525 5.7349 1.81267 6.95156 1.288C8.16823 0.763333 9.46823 0.500667 10.8516 0.5C12.2349 0.5 13.5349 0.762667 14.7516 1.288C15.9682 1.81333 17.0266 2.52567 17.9266 3.425C18.8266 4.325 19.5392 5.38333 20.0646 6.6C20.5899 7.81667 20.8522 9.11667 20.8516 10.5C20.8516 11.8833 20.5889 13.1833 20.0636 14.4C19.5382 15.6167 18.8259 16.675 17.9266 17.575C17.0266 18.475 15.9682 19.1877 14.7516 19.713C13.5349 20.2383 12.2349 20.5007 10.8516 20.5Z" fill="#1F2D3D"/>
</svg>
