<svg width="25" height="25" viewBox="0 0 25 25" fill="none" xmlns="http://www.w3.org/2000/svg">
<path d="M8.89219 17.6758L12.4922 14.0758L16.0922 17.6758L17.4922 16.2758L13.8922 12.6758L17.4922 9.07578L16.0922 7.67578L12.4922 11.2758L8.89219 7.67578L7.49219 9.07578L11.0922 12.6758L7.49219 16.2758L8.89219 17.6758ZM12.4922 22.6758C11.1089 22.6758 9.80885 22.4131 8.59219 21.8878C7.37552 21.3624 6.31719 20.6501 5.41719 19.7508C4.51719 18.8508 3.80485 17.7924 3.28019 16.5758C2.75552 15.3591 2.49285 14.0591 2.49219 12.6758C2.49219 11.2924 2.75485 9.99245 3.28019 8.77578C3.80552 7.55911 4.51785 6.50078 5.41719 5.60078C6.31719 4.70078 7.37552 3.98845 8.59219 3.46378C9.80885 2.93911 11.1089 2.67645 12.4922 2.67578C13.8755 2.67578 15.1755 2.93845 16.3922 3.46378C17.6089 3.98911 18.6672 4.70145 19.5672 5.60078C20.4672 6.50078 21.1799 7.55911 21.7052 8.77578C22.2305 9.99245 22.4929 11.2924 22.4922 12.6758C22.4922 14.0591 22.2295 15.3591 21.7042 16.5758C21.1789 17.7924 20.4665 18.8508 19.5672 19.7508C18.6672 20.6508 17.6089 21.3634 16.3922 21.8888C15.1755 22.4141 13.8755 22.6764 12.4922 22.6758Z" fill="#1F2D3D"/>
</svg>
