<svg width="22" height="22" viewBox="0 0 22 22" fill="none" xmlns="http://www.w3.org/2000/svg">
<path d="M17.134 9.2373H12.134" stroke="#1F2D3D" stroke-width="0.875" stroke-linecap="round"/>
<path d="M9.13403 2.23535H15.634C16.098 2.23535 16.331 2.23535 16.526 2.26135C17.1805 2.34767 17.7883 2.64747 18.2551 3.11428C18.7219 3.58109 19.0217 4.18885 19.108 4.84335C19.134 5.03835 19.134 5.27135 19.134 5.73535" stroke="#1F2D3D" stroke-width="0.875"/>
<path d="M1.13428 6.18633C1.13428 5.30333 1.13428 4.86233 1.20428 4.49433C1.3535 3.70417 1.73741 2.97733 2.30593 2.40863C2.87444 1.83994 3.60116 1.4558 4.39128 1.30633C4.76028 1.23633 5.20228 1.23633 6.08428 1.23633C6.47028 1.23633 6.66428 1.23633 6.85028 1.25333C7.65132 1.32856 8.41106 1.64361 9.03028 2.15733C9.17428 2.27633 9.31028 2.41233 9.58428 2.68633L10.1343 3.23633C10.9503 4.05233 11.3583 4.46033 11.8463 4.73133C12.1145 4.88082 12.399 4.99893 12.6943 5.08333C13.2323 5.23633 13.8093 5.23633 14.9623 5.23633H15.3363C17.9683 5.23633 19.2853 5.23633 20.1403 6.00633C20.2193 6.07633 20.2943 6.15133 20.3643 6.23033C21.1343 7.08533 21.1343 8.40233 21.1343 11.0343V13.2363C21.1343 17.0073 21.1343 18.8933 19.9623 20.0643C18.7913 21.2363 16.9053 21.2363 13.1343 21.2363H9.13428C5.36328 21.2363 3.47728 21.2363 2.30628 20.0643C1.13428 18.8933 1.13428 17.0073 1.13428 13.2363V6.18633Z" stroke="#1F2D3D" stroke-width="0.875"/>
</svg>
