<svg width="35" height="35" viewBox="0 0 35 35" fill="none" xmlns="http://www.w3.org/2000/svg">
    <path
        d="M16.7099 32.7841H11.3509C5.15976 32.7841 2.39563 30.02 2.39563 23.8289V18.4699C2.39563 12.2788 5.15976 9.51465 11.3509 9.51465H15.5817C16.1599 9.51465 16.6394 9.99414 16.6394 10.5724C16.6394 11.1506 16.1599 11.6301 15.5817 11.6301H11.3509C6.30208 11.6301 4.51104 13.4211 4.51104 18.4699V23.8289C4.51104 28.8777 6.30208 30.6687 11.3509 30.6687H16.7099C21.7587 30.6687 23.5497 28.8777 23.5497 23.8289V19.5981C23.5497 19.0199 24.0292 18.5404 24.6074 18.5404C25.1856 18.5404 25.6651 19.0199 25.6651 19.5981V23.8289C25.6651 30.02 22.901 32.7841 16.7099 32.7841Z"
        fill="#113DBC" />
    <path
        d="M24.6075 20.6562H20.0946C16.1318 20.6562 14.524 19.0484 14.524 15.0856V10.5727C14.524 10.1496 14.7779 9.75475 15.1728 9.59962C15.5676 9.43039 16.0189 9.52911 16.3292 9.82527L25.3549 18.851C25.6511 19.1472 25.7498 19.6126 25.5806 20.0074C25.4255 20.4023 25.0306 20.6562 24.6075 20.6562ZM16.6395 13.1253V15.0856C16.6395 17.892 17.2882 18.5407 20.0946 18.5407H22.0549L16.6395 13.1253Z"
        fill="#113DBC" />
    <path
        d="M22.633 4.57928H16.9919C16.4137 4.57928 15.9342 4.09978 15.9342 3.52157C15.9342 2.94336 16.4137 2.46387 16.9919 2.46387H22.633C23.2112 2.46387 23.6907 2.94336 23.6907 3.52157C23.6907 4.09978 23.2112 4.57928 22.633 4.57928Z"
        fill="#113DBC" />
    <path
        d="M10.5047 8.81009C9.92651 8.81009 9.44702 8.3306 9.44702 7.75239C9.44702 4.83312 11.8163 2.46387 14.7355 2.46387H18.4305C19.0087 2.46387 19.4882 2.94336 19.4882 3.52157C19.4882 4.09978 19.0087 4.57928 18.4305 4.57928H14.7355C12.9868 4.57928 11.5624 6.00365 11.5624 7.75239C11.5624 8.3306 11.0829 8.81009 10.5047 8.81009Z"
        fill="#113DBC" />
    <path
        d="M27.696 25.7332C27.1178 25.7332 26.6383 25.2537 26.6383 24.6754C26.6383 24.0972 27.1178 23.6177 27.696 23.6177C29.3037 23.6177 30.6012 22.3062 30.6012 20.7126V11.983C30.6012 11.4048 31.0807 10.9253 31.6589 10.9253C32.2371 10.9253 32.7166 11.4048 32.7166 11.983V20.7126C32.7166 23.4767 30.4601 25.7332 27.696 25.7332Z"
        fill="#113DBC" />
    <path
        d="M31.6587 13.0403H27.4279C23.6766 13.0403 22.1394 11.5031 22.1394 7.75177V3.52095C22.1394 3.09787 22.3933 2.703 22.7881 2.54787C23.183 2.37863 23.6343 2.47735 23.9446 2.77351L32.4062 11.2351C32.7023 11.5313 32.8011 11.9967 32.6318 12.3916C32.4767 12.7864 32.0818 13.0403 31.6587 13.0403ZM24.2548 6.07355V7.75177C24.2548 10.3326 24.8471 10.9249 27.4279 10.9249H29.1061L24.2548 6.07355Z"
        fill="#113DBC" />
</svg>
