<svg width="20" height="20" viewBox="0 0 20 20" fill="none" xmlns="http://www.w3.org/2000/svg">
<g clip-path="url(#clip0_1676_4833)">
<path d="M9.99958 19.2858C15.1279 19.2858 19.2853 15.1284 19.2853 10.0001C19.2853 4.87171 15.1279 0.714355 9.99958 0.714355C4.87122 0.714355 0.713867 4.87171 0.713867 10.0001C0.713867 15.1284 4.87122 19.2858 9.99958 19.2858Z" stroke="#322F37" stroke-linecap="round" stroke-linejoin="round"/>
<path d="M7.85742 7.85721C7.85742 7.4334 7.9831 7.0191 8.21856 6.66671C8.45402 6.31432 8.78869 6.03966 9.18024 5.87747C9.5718 5.71528 10.0027 5.67285 10.4183 5.75553C10.834 5.83821 11.2158 6.0423 11.5155 6.34198C11.8152 6.64167 12.0193 7.02349 12.102 7.43916C12.1846 7.85484 12.1422 8.28569 11.98 8.67725C11.8178 9.06881 11.5432 9.40347 11.1908 9.63893C10.8384 9.87439 10.4241 10.0001 10.0003 10.0001V11.4286" stroke="#322F37" stroke-linecap="round" stroke-linejoin="round"/>
<path d="M10.0001 13.5713C9.78823 13.5713 9.58108 13.6341 9.40489 13.7519C9.22869 13.8696 9.09136 14.0369 9.01027 14.2327C8.92918 14.4285 8.90796 14.6439 8.9493 14.8517C8.99064 15.0596 9.09268 15.2505 9.24253 15.4003C9.39237 15.5502 9.58328 15.6522 9.79111 15.6936C9.99895 15.7349 10.2144 15.7137 10.4102 15.6326C10.6059 15.5515 10.7733 15.4142 10.891 15.238C11.0087 15.0618 11.0716 14.8546 11.0716 14.6427C11.0679 14.3597 10.9538 14.0893 10.7537 13.8892C10.5535 13.6891 10.2832 13.575 10.0001 13.5713Z" fill="#322F37"/>
</g>
<defs>
<clipPath id="clip0_1676_4833">
<rect width="20" height="20" fill="white"/>
</clipPath>
</defs>
</svg>
