<svg width="35" height="35" viewBox="0 0 35 35" fill="none" xmlns="http://www.w3.org/2000/svg">
    <path
        d="M12.0087 32.0958C11.6138 32.0958 11.2048 31.9971 10.8382 31.7997C10.0343 31.3766 9.54074 30.5304 9.54074 29.6278V27.6253C5.28172 27.1882 2.48938 24.0572 2.48938 19.5726V11.111C2.48938 6.25968 5.74711 3.00195 10.5984 3.00195H24.7012C29.5525 3.00195 32.8102 6.25968 32.8102 11.111V19.5726C32.8102 24.4239 29.5525 27.6816 24.7012 27.6816H19.3844L13.3766 31.6869C12.9677 31.9549 12.4882 32.0958 12.0087 32.0958ZM10.5984 5.10324C6.95994 5.10324 4.60479 7.4584 4.60479 11.0969V19.5586C4.60479 23.1971 6.95994 25.5523 10.5984 25.5523C11.1767 25.5523 11.6561 26.0318 11.6561 26.61V29.6139C11.6561 29.7972 11.769 29.8818 11.8395 29.9241C11.91 29.9664 12.051 30.0087 12.2062 29.91L18.4819 25.7356C18.6511 25.6228 18.8627 25.5523 19.0742 25.5523H24.7153C28.3538 25.5523 30.7089 23.1971 30.7089 19.5586V11.0969C30.7089 7.4584 28.3538 5.10324 24.7153 5.10324H10.5984Z"
        fill="#113DBC" />
    <path
        d="M17.6496 17.697C17.0714 17.697 16.5919 17.2175 16.5919 16.6393V16.3432C16.5919 14.7073 17.7906 13.9034 18.2419 13.5931C18.7637 13.2406 18.9329 13.0008 18.9329 12.6342C18.9329 11.929 18.3547 11.3508 17.6496 11.3508C16.9444 11.3508 16.3663 11.929 16.3663 12.6342C16.3663 13.2124 15.8868 13.6919 15.3086 13.6919C14.7303 13.6919 14.2509 13.2124 14.2509 12.6342C14.2509 10.7585 15.7739 9.23535 17.6496 9.23535C19.5252 9.23535 21.0483 10.7585 21.0483 12.6342C21.0483 14.2419 19.8637 15.0457 19.4265 15.3419C18.8765 15.7085 18.7073 15.9483 18.7073 16.3432V16.6393C18.7073 17.2316 18.2278 17.697 17.6496 17.697Z"
        fill="#113DBC" />
    <path
        d="M17.6499 21.2087C17.0576 21.2087 16.5922 20.7292 16.5922 20.151C16.5922 19.5728 17.0717 19.0933 17.6499 19.0933C18.2281 19.0933 18.7076 19.5728 18.7076 20.151C18.7076 20.7292 18.2422 21.2087 17.6499 21.2087Z"
        fill="#113DBC" />
</svg>
