<svg width="25" height="25" viewBox="0 0 25 25" fill="none" xmlns="http://www.w3.org/2000/svg">
<path d="M17.3845 21.1265C15.4645 21.1265 13.6545 20.1065 12.6745 18.4565C12.1545 17.6165 11.8845 16.6365 11.8845 15.6265C11.8845 12.5965 14.3545 10.1265 17.3845 10.1265C20.4145 10.1265 22.8845 12.5965 22.8845 15.6265C22.8845 16.6365 22.6045 17.6165 22.0845 18.4665C21.1145 20.1065 19.3145 21.1265 17.3845 21.1265ZM17.3845 11.6265C15.1745 11.6265 13.3845 13.4165 13.3845 15.6265C13.3845 16.3565 13.5845 17.0665 13.9645 17.6765C14.6845 18.8865 15.9945 19.6265 17.3845 19.6265C18.8045 19.6265 20.0845 18.9065 20.8045 17.6865C21.1845 17.0665 21.3845 16.3565 21.3845 15.6265C21.3845 13.4165 19.5945 11.6265 17.3845 11.6265Z" fill="#937DEC"/>
<path d="M19.1645 16.3564H15.6145C15.2045 16.3564 14.8645 16.0164 14.8645 15.6064C14.8645 15.1964 15.2045 14.8564 15.6145 14.8564H19.1645C19.5745 14.8564 19.9145 15.1964 19.9145 15.6064C19.9145 16.0164 19.5745 16.3564 19.1645 16.3564Z" fill="#937DEC"/>
<path d="M17.3845 18.1664C16.9745 18.1664 16.6345 17.8264 16.6345 17.4164V13.8765C16.6345 13.4665 16.9745 13.1265 17.3845 13.1265C17.7945 13.1265 18.1345 13.4665 18.1345 13.8765V17.4265C18.1345 17.8365 17.8045 18.1664 17.3845 18.1664Z" fill="#937DEC"/>
<path d="M11.4344 23.6265C10.9544 23.6265 10.4744 23.5065 10.0444 23.2665C9.15445 22.7665 8.62444 21.8664 8.62444 20.8564V15.5065C8.62444 15.0065 8.29445 14.2464 7.97445 13.8564L4.17444 9.86646C3.54444 9.21645 3.05444 8.12648 3.05444 7.32648V4.99646C3.05444 3.38646 4.27444 2.12646 5.82444 2.12646H19.1644C20.6944 2.12646 21.9344 3.36648 21.9344 4.89648V7.11646C21.9344 8.16646 21.3144 9.34649 20.7144 9.96649L18.9144 11.5565C18.7344 11.7165 18.4844 11.7764 18.2444 11.7264C17.9744 11.6564 17.6844 11.6265 17.3844 11.6265C15.1744 11.6265 13.3844 13.4165 13.3844 15.6265C13.3844 16.3565 13.5844 17.0665 13.9644 17.6865C14.2844 18.2165 14.7144 18.6565 15.2144 18.9665C15.4344 19.1065 15.5744 19.3464 15.5744 19.6064V19.9465C15.5744 20.7365 15.0944 21.8465 14.2944 22.3165L12.9144 23.2065C12.4644 23.4865 11.9444 23.6265 11.4344 23.6265ZM5.83445 3.62646C5.12445 3.62646 4.56445 4.22646 4.56445 4.99646V7.32648C4.56445 7.68648 4.86444 8.42648 5.26444 8.82648L9.11444 12.8765C9.62444 13.5065 10.1344 14.5765 10.1344 15.5165V20.8665C10.1344 21.5265 10.5944 21.8565 10.7844 21.9665C11.2144 22.2065 11.7244 22.1965 12.1144 21.9565L13.5144 21.0565C13.7844 20.8965 14.0544 20.3865 14.0744 20.0265C13.5244 19.6165 13.0444 19.0865 12.6844 18.4865C12.1644 17.6364 11.8844 16.6565 11.8844 15.6565C11.8844 12.6265 14.3544 10.1565 17.3844 10.1565C17.6644 10.1565 17.9444 10.1765 18.2044 10.2165L19.6844 8.90649C20.0244 8.55649 20.4444 7.72647 20.4444 7.13647V4.91644C20.4444 4.21644 19.8744 3.64648 19.1744 3.64648H5.83445V3.62646Z" fill="#937DEC"/>
</svg>
