<svg width="20" height="20" viewBox="0 0 20 20" fill="none" xmlns="http://www.w3.org/2000/svg">
<path d="M15.8251 2.12698C15.1999 1.7659 14.5096 1.53152 13.7937 1.43722C13.0779 1.34293 12.3505 1.39056 11.653 1.57741C10.9556 1.76426 10.3018 2.08666 9.72893 2.5262C9.15609 2.96574 8.67544 3.51381 8.31442 4.13912L8.10728 4.49769C8.03639 4.62075 8.01725 4.76692 8.05409 4.90407C8.09092 5.04122 8.18071 5.15814 8.30371 5.22912L12.2044 7.48127L9.87014 11.567L9.82157 11.5663C7.56585 11.5663 5.61228 12.8748 4.44871 14.7248C4.64738 14.6543 4.85921 14.6288 5.06894 14.65C5.27867 14.6713 5.48108 14.7388 5.66157 14.8477C6.67014 13.5148 8.17442 12.6377 9.82157 12.6377C11.5387 12.6377 13.1009 13.5913 14.1073 15.0206C14.2464 14.8924 14.4096 14.7932 14.5874 14.7287C14.7652 14.6642 14.9541 14.6357 15.143 14.6448C14.1923 13.1748 12.738 12.0591 11.0316 11.6941L13.1323 8.01698L16.8987 10.192C16.9597 10.2272 17.027 10.25 17.0968 10.2592C17.1666 10.2684 17.2375 10.2638 17.3055 10.2455C17.3735 10.2273 17.4372 10.1958 17.4931 10.1529C17.5489 10.11 17.5957 10.0566 17.6309 9.99555L17.838 9.6377C18.199 9.01238 18.4334 8.32207 18.5276 7.60619C18.6219 6.8903 18.5742 6.16286 18.3873 5.46541C18.2003 4.76796 17.8779 4.11417 17.4383 3.54135C16.9986 2.96854 16.4505 2.48793 15.8251 2.12698ZM14.2609 7.43127L12.0051 6.12841C12.4137 5.49912 12.8023 5.01984 13.268 4.59627C13.7216 4.18341 14.263 3.81055 14.9973 3.40484C15.1059 4.08698 15.1387 4.65484 15.0687 5.21198C14.9859 5.87769 14.7509 6.56412 14.2594 7.43055L14.2609 7.43127ZM15.188 7.96698C15.7309 7.01127 16.028 6.18841 16.133 5.34555C16.2023 4.7927 16.1866 4.24698 16.1173 3.67055C16.8256 4.34047 17.293 5.22539 17.4471 6.18806C17.6011 7.15072 17.4332 8.13732 16.9694 8.99484L15.188 7.96627V7.96698ZM12.548 3.80412C11.9837 4.3177 11.5301 4.88912 11.0766 5.59269L9.30514 4.56984C9.80494 3.7573 10.5538 3.12787 11.4401 2.77523C12.3265 2.42259 13.303 2.36558 14.2244 2.61269C13.5609 2.99484 13.0209 3.37341 12.548 3.80412ZM5.43371 15.9027C5.39703 15.7925 5.32551 15.6972 5.22994 15.6311C5.13437 15.5651 5.01992 15.5319 4.90384 15.5366C4.78777 15.5412 4.67636 15.5835 4.58641 15.657C4.49646 15.7305 4.43284 15.8313 4.40514 15.9441C4.223 16.6884 3.878 17.097 3.48514 17.3341C3.07371 17.5827 2.54943 17.6784 1.96443 17.6784C1.82234 17.6784 1.68608 17.7348 1.58562 17.8353C1.48515 17.9358 1.42871 18.072 1.42871 18.2141C1.42871 18.3562 1.48515 18.4925 1.58562 18.5929C1.68608 18.6934 1.82234 18.7498 1.96443 18.7498C2.648 18.7498 3.393 18.6413 4.03871 18.2513C4.42405 18.0188 4.74887 17.6984 4.98657 17.3163C6.26442 18.9463 8.75942 18.9377 10.0001 17.2991C11.2609 18.9634 13.8144 18.9463 15.0737 17.2377C15.4156 17.703 15.8614 18.0821 16.3757 18.3446C16.89 18.6071 17.4585 18.7459 18.0359 18.7498C18.1779 18.7498 18.3142 18.6934 18.4147 18.5929C18.5151 18.4925 18.5716 18.3562 18.5716 18.2141C18.5716 18.072 18.5151 17.9358 18.4147 17.8353C18.3142 17.7348 18.1779 17.6784 18.0359 17.6784C16.9823 17.6784 15.9323 16.9927 15.5859 15.9084C15.5516 15.8005 15.484 15.7062 15.3928 15.6391C15.3016 15.572 15.1915 15.5355 15.0783 15.5349C14.9651 15.5343 14.8546 15.5695 14.7626 15.6356C14.6707 15.7017 14.6021 15.7952 14.5666 15.9027C13.8787 17.9806 11.1823 17.9541 10.5066 15.9891C10.4702 15.8837 10.4019 15.7923 10.3111 15.7276C10.2203 15.6629 10.1116 15.6281 10.0001 15.6281C9.88866 15.6281 9.77995 15.6629 9.68917 15.7276C9.59839 15.7923 9.53007 15.8837 9.49371 15.9891C8.818 17.9541 6.12228 17.9798 5.43371 15.9027Z" fill="#322F37"/>
</svg>
