<svg width="34" height="35" viewBox="0 0 34 35" fill="none" xmlns="http://www.w3.org/2000/svg">
    <path
        d="M11.3603 8.6099C10.7821 8.6099 10.3026 8.1304 10.3026 7.55219V3.32138C10.3026 2.74316 10.7821 2.26367 11.3603 2.26367C11.9385 2.26367 12.418 2.74316 12.418 3.32138V7.55219C12.418 8.1304 11.9385 8.6099 11.3603 8.6099Z"
        fill="#113DBC" />
    <path
        d="M22.6424 8.6099C22.0642 8.6099 21.5847 8.1304 21.5847 7.55219V3.32138C21.5847 2.74316 22.0642 2.26367 22.6424 2.26367C23.2206 2.26367 23.7001 2.74316 23.7001 3.32138V7.55219C23.7001 8.1304 23.2206 8.6099 22.6424 8.6099Z"
        fill="#113DBC" />
    <path
        d="M25.7451 31.7378C22.6707 31.7378 20.1746 29.2417 20.1746 26.1673C20.1746 23.0929 22.6707 20.5967 25.7451 20.5967C28.8195 20.5967 31.3157 23.0929 31.3157 26.1673C31.3157 29.2417 28.8195 31.7378 25.7451 31.7378ZM25.7451 22.7121C23.8413 22.7121 22.29 24.2634 22.29 26.1673C22.29 28.0711 23.8413 29.6224 25.7451 29.6224C27.649 29.6224 29.2003 28.0711 29.2003 26.1673C29.2003 24.2634 27.649 22.7121 25.7451 22.7121Z"
        fill="#113DBC" />
    <path
        d="M31.104 32.5842C30.836 32.5842 30.5681 32.4854 30.3565 32.2739L28.9463 30.8636C28.5373 30.4547 28.5373 29.7777 28.9463 29.3687C29.3552 28.9598 30.0322 28.9598 30.4411 29.3687L31.8514 30.779C32.2604 31.188 32.2604 31.8649 31.8514 32.2739C31.6399 32.4854 31.3719 32.5842 31.104 32.5842Z"
        fill="#113DBC" />
    <path
        d="M12.0654 20.9494C11.8821 20.9494 11.6987 20.9071 11.5295 20.8366C11.3462 20.766 11.191 20.6673 11.0641 20.5404C11.0077 20.4699 10.9372 20.3993 10.8949 20.3288C10.8385 20.2442 10.7962 20.1596 10.768 20.075C10.7257 19.9904 10.6975 19.9058 10.6834 19.8212C10.6693 19.7224 10.6552 19.6237 10.6552 19.5391C10.6552 19.1724 10.8103 18.8058 11.0641 18.5378C11.191 18.4109 11.3462 18.3121 11.5295 18.2416C12.0372 18.016 12.6719 18.1429 13.0667 18.5378C13.3206 18.8058 13.4757 19.1724 13.4757 19.5391C13.4757 19.6237 13.4616 19.7224 13.4475 19.8212C13.4334 19.9058 13.4052 19.9904 13.3629 20.075C13.3347 20.1596 13.2924 20.2442 13.236 20.3288C13.1795 20.3993 13.1231 20.4699 13.0667 20.5404C12.7988 20.7942 12.4321 20.9494 12.0654 20.9494Z"
        fill="#113DBC" />
    <path
        d="M17.0015 20.9494C16.6348 20.9494 16.2681 20.7942 16.0002 20.5404C15.7463 20.2724 15.5912 19.9199 15.5912 19.5391C15.5912 19.3558 15.6335 19.1724 15.704 19.0032C15.7745 18.834 15.8732 18.6789 16.0002 18.5378C16.522 18.016 17.4669 18.016 18.0028 18.5378C18.2566 18.8058 18.4117 19.1724 18.4117 19.5391C18.4117 19.6237 18.3976 19.7225 18.3835 19.8212C18.3694 19.9058 18.3412 19.9904 18.2989 20.075C18.2707 20.1596 18.2284 20.2442 18.172 20.3289C18.1156 20.3994 18.0592 20.4699 18.0028 20.5404C17.7348 20.7942 17.3681 20.9494 17.0015 20.9494Z"
        fill="#113DBC" />
    <path
        d="M12.0654 25.8854C11.6988 25.8854 11.3321 25.7303 11.0641 25.4764C10.8103 25.2085 10.6552 24.8418 10.6552 24.4752C10.6552 24.2918 10.6975 24.1085 10.768 23.9392C10.8385 23.7559 10.9372 23.6008 11.0641 23.4739C11.5859 22.9521 12.5449 22.9521 13.0667 23.4739C13.3206 23.7418 13.4757 24.1085 13.4757 24.4752C13.4757 24.8418 13.3206 25.2085 13.0667 25.4764C12.7988 25.7303 12.4321 25.8854 12.0654 25.8854Z"
        fill="#113DBC" />
    <path
        d="M28.9888 14.3776H5.01413C4.43591 14.3776 3.95642 13.8981 3.95642 13.3199C3.95642 12.7417 4.43591 12.2622 5.01413 12.2622H28.9888C29.567 12.2622 30.0465 12.7417 30.0465 13.3199C30.0465 13.8981 29.567 14.3776 28.9888 14.3776Z"
        fill="#113DBC" />
    <path
        d="M18.9334 32.5844H11.3603C6.21279 32.5844 3.25122 29.6228 3.25122 24.4753V12.488C3.25122 7.34048 6.21279 4.37891 11.3603 4.37891H22.6425C27.79 4.37891 30.7515 7.34048 30.7515 12.488V18.8342C30.7515 19.4124 30.272 19.8919 29.6938 19.8919C29.1156 19.8919 28.6361 19.4124 28.6361 18.8342V12.488C28.6361 8.45459 26.6758 6.49431 22.6425 6.49431H11.3603C7.32691 6.49431 5.36663 8.45459 5.36663 12.488V24.4753C5.36663 28.5087 7.32691 30.4689 11.3603 30.4689H18.9334C19.5117 30.4689 19.9911 30.9484 19.9911 31.5266C19.9911 32.1049 19.5117 32.5844 18.9334 32.5844Z"
        fill="#113DBC" />
</svg>
