<svg width="21" height="21" viewBox="0 0 21 21" fill="none" xmlns="http://www.w3.org/2000/svg">
<g clip-path="url(#clip0_3722_7866)">
<path d="M4.50928 0.236328C4.67504 0.236328 4.83401 0.302176 4.95122 0.419386C5.06843 0.536597 5.13428 0.695568 5.13428 0.861328V1.48633H15.1343V0.861328C15.1343 0.695568 15.2001 0.536597 15.3173 0.419386C15.4345 0.302176 15.5935 0.236328 15.7593 0.236328C15.925 0.236328 16.084 0.302176 16.2012 0.419386C16.3184 0.536597 16.3843 0.695568 16.3843 0.861328V1.48633H17.6343C18.2973 1.48633 18.9332 1.74972 19.402 2.21856C19.8709 2.6874 20.1343 3.32329 20.1343 3.98633V17.7363C20.1343 18.3994 19.8709 19.0353 19.402 19.5041C18.9332 19.9729 18.2973 20.2363 17.6343 20.2363H2.63428C1.97124 20.2363 1.33535 19.9729 0.86651 19.5041C0.397669 19.0353 0.134277 18.3994 0.134277 17.7363V3.98633C0.134277 3.32329 0.397669 2.6874 0.86651 2.21856C1.33535 1.74972 1.97124 1.48633 2.63428 1.48633H3.88428V0.861328C3.88428 0.695568 3.95013 0.536597 4.06734 0.419386C4.18455 0.302176 4.34352 0.236328 4.50928 0.236328ZM2.63428 2.73633C2.30276 2.73633 1.98481 2.86802 1.75039 3.10244C1.51597 3.33686 1.38428 3.65481 1.38428 3.98633V5.23633H18.8843V3.98633C18.8843 3.65481 18.7526 3.33686 18.5182 3.10244C18.2837 2.86802 17.9658 2.73633 17.6343 2.73633H2.63428ZM18.8843 6.48633H1.38428V17.7363C1.38428 18.0678 1.51597 18.3858 1.75039 18.6202C1.98481 18.8546 2.30276 18.9863 2.63428 18.9863H17.6343C17.9658 18.9863 18.2837 18.8546 18.5182 18.6202C18.7526 18.3858 18.8843 18.0678 18.8843 17.7363V6.48633Z" fill="#1F2D3D"/>
<path d="M7.63428 10.2363C7.9658 10.2363 8.28374 10.1046 8.51816 9.87021C8.75258 9.63579 8.88428 9.31785 8.88428 8.98633C8.88428 8.65481 8.75258 8.33687 8.51816 8.10244C8.28374 7.86802 7.9658 7.73633 7.63428 7.73633C7.30276 7.73633 6.98481 7.86802 6.75039 8.10244C6.51597 8.33687 6.38428 8.65481 6.38428 8.98633C6.38428 9.31785 6.51597 9.63579 6.75039 9.87021C6.98481 10.1046 7.30276 10.2363 7.63428 10.2363ZM15.1343 10.2363C15.4658 10.2363 15.7837 10.1046 16.0182 9.87021C16.2526 9.63579 16.3843 9.31785 16.3843 8.98633C16.3843 8.65481 16.2526 8.33687 16.0182 8.10244C15.7837 7.86802 15.4658 7.73633 15.1343 7.73633C14.8028 7.73633 14.4848 7.86802 14.2504 8.10244C14.016 8.33687 13.8843 8.65481 13.8843 8.98633C13.8843 9.31785 14.016 9.63579 14.2504 9.87021C14.4848 10.1046 14.8028 10.2363 15.1343 10.2363ZM3.88428 13.9863C4.2158 13.9863 4.53374 13.8546 4.76816 13.6202C5.00258 13.3858 5.13428 13.0678 5.13428 12.7363C5.13428 12.4048 5.00258 12.0869 4.76816 11.8524C4.53374 11.618 4.2158 11.4863 3.88428 11.4863C3.55276 11.4863 3.23481 11.618 3.00039 11.8524C2.76597 12.0869 2.63428 12.4048 2.63428 12.7363C2.63428 13.0678 2.76597 13.3858 3.00039 13.6202C3.23481 13.8546 3.55276 13.9863 3.88428 13.9863ZM7.63428 13.9863C7.9658 13.9863 8.28374 13.8546 8.51816 13.6202C8.75258 13.3858 8.88428 13.0678 8.88428 12.7363C8.88428 12.4048 8.75258 12.0869 8.51816 11.8524C8.28374 11.618 7.9658 11.4863 7.63428 11.4863C7.30276 11.4863 6.98481 11.618 6.75039 11.8524C6.51597 12.0869 6.38428 12.4048 6.38428 12.7363C6.38428 13.0678 6.51597 13.3858 6.75039 13.6202C6.98481 13.8546 7.30276 13.9863 7.63428 13.9863ZM11.3843 13.9863C11.7158 13.9863 12.0337 13.8546 12.2682 13.6202C12.5026 13.3858 12.6343 13.0678 12.6343 12.7363C12.6343 12.4048 12.5026 12.0869 12.2682 11.8524C12.0337 11.618 11.7158 11.4863 11.3843 11.4863C11.0528 11.4863 10.7348 11.618 10.5004 11.8524C10.266 12.0869 10.1343 12.4048 10.1343 12.7363C10.1343 13.0678 10.266 13.3858 10.5004 13.6202C10.7348 13.8546 11.0528 13.9863 11.3843 13.9863ZM15.1343 13.9863C15.4658 13.9863 15.7837 13.8546 16.0182 13.6202C16.2526 13.3858 16.3843 13.0678 16.3843 12.7363C16.3843 12.4048 16.2526 12.0869 16.0182 11.8524C15.7837 11.618 15.4658 11.4863 15.1343 11.4863C14.8028 11.4863 14.4848 11.618 14.2504 11.8524C14.016 12.0869 13.8843 12.4048 13.8843 12.7363C13.8843 13.0678 14.016 13.3858 14.2504 13.6202C14.4848 13.8546 14.8028 13.9863 15.1343 13.9863ZM3.88428 17.7363C4.2158 17.7363 4.53374 17.6046 4.76816 17.3702C5.00258 17.1358 5.13428 16.8178 5.13428 16.4863C5.13428 16.1548 5.00258 15.8369 4.76816 15.6024C4.53374 15.368 4.2158 15.2363 3.88428 15.2363C3.55276 15.2363 3.23481 15.368 3.00039 15.6024C2.76597 15.8369 2.63428 16.1548 2.63428 16.4863C2.63428 16.8178 2.76597 17.1358 3.00039 17.3702C3.23481 17.6046 3.55276 17.7363 3.88428 17.7363ZM11.3843 17.7363C11.7158 17.7363 12.0337 17.6046 12.2682 17.3702C12.5026 17.1358 12.6343 16.8178 12.6343 16.4863C12.6343 16.1548 12.5026 15.8369 12.2682 15.6024C12.0337 15.368 11.7158 15.2363 11.3843 15.2363C11.0528 15.2363 10.7348 15.368 10.5004 15.6024C10.266 15.8369 10.1343 16.1548 10.1343 16.4863C10.1343 16.8178 10.266 17.1358 10.5004 17.3702C10.7348 17.6046 11.0528 17.7363 11.3843 17.7363Z" fill="#1F2D3D"/>
<path d="M12.2682 9.87021C12.0337 10.1046 11.7158 10.2363 11.3843 10.2363C11.0528 10.2363 10.7348 10.1046 10.5004 9.87021C10.266 9.63579 10.1343 9.31785 10.1343 8.98633C10.1343 8.65481 10.266 8.33687 10.5004 8.10244C10.7348 7.86802 11.0528 7.73633 11.3843 7.73633C11.7158 7.73633 12.0337 7.86802 12.2682 8.10244C12.5026 8.33687 12.6343 8.65481 12.6343 8.98633C12.6343 9.31785 12.5026 9.63579 12.2682 9.87021Z" fill="#1F2D3D"/>
<path d="M8.51816 17.3702C8.28374 17.6046 7.9658 17.7363 7.63428 17.7363C7.30276 17.7363 6.98481 17.6046 6.75039 17.3702C6.51597 17.1358 6.38428 16.8178 6.38428 16.4863C6.38428 16.1548 6.51597 15.8369 6.75039 15.6024C6.98481 15.368 7.30276 15.2363 7.63428 15.2363C7.9658 15.2363 8.28374 15.368 8.51816 15.6024C8.75258 15.8369 8.88428 16.1548 8.88428 16.4863C8.88428 16.8178 8.75258 17.1358 8.51816 17.3702Z" fill="#1F2D3D"/>
</g>
<defs>
<clipPath id="clip0_3722_7866">
<rect width="20" height="20" fill="white" transform="translate(0.134277 0.236328)"/>
</clipPath>
</defs>
</svg>
