<svg width="35" height="35" viewBox="0 0 35 35" fill="none" xmlns="http://www.w3.org/2000/svg">
    <path
        d="M11.915 8.63333C11.3368 8.63333 10.8573 8.15384 10.8573 7.57563V3.34481C10.8573 2.7666 11.3368 2.28711 11.915 2.28711C12.4932 2.28711 12.9727 2.7666 12.9727 3.34481V7.57563C12.9727 8.15384 12.4932 8.63333 11.915 8.63333Z"
        fill="#113DBC" />
    <path
        d="M23.1971 8.63333C22.6189 8.63333 22.1394 8.15384 22.1394 7.57563V3.34481C22.1394 2.7666 22.6189 2.28711 23.1971 2.28711C23.7753 2.28711 24.2548 2.7666 24.2548 3.34481V7.57563C24.2548 8.15384 23.7753 8.63333 23.1971 8.63333Z"
        fill="#113DBC" />
    <path
        d="M12.6201 20.9732C12.4368 20.9732 12.2534 20.9309 12.0842 20.8604C11.9009 20.7899 11.7599 20.6911 11.6188 20.5642C11.365 20.2962 11.2098 19.9296 11.2098 19.5629C11.2098 19.1962 11.365 18.8296 11.6188 18.5616C11.7599 18.4347 11.915 18.336 12.0842 18.2654C12.4227 18.1244 12.8176 18.1244 13.156 18.2654C13.3253 18.336 13.4804 18.4347 13.6214 18.5616C13.6778 18.6321 13.7483 18.7026 13.7906 18.7732C13.847 18.8578 13.8894 18.9424 13.9176 19.027C13.9599 19.1116 13.9881 19.1962 14.0022 19.2808C14.0163 19.3796 14.0304 19.4783 14.0304 19.5629C14.0304 19.9296 13.8752 20.2962 13.6214 20.5642C13.4804 20.6911 13.3253 20.7899 13.156 20.8604C12.9868 20.9309 12.8034 20.9732 12.6201 20.9732Z"
        fill="#113DBC" />
    <path
        d="M17.5561 20.9728C17.3728 20.9728 17.1895 20.9305 17.0202 20.86C16.8369 20.7895 16.6959 20.6908 16.5549 20.5638C16.301 20.2959 16.1459 19.9292 16.1459 19.5626C16.1459 19.4779 16.16 19.3792 16.1741 19.2805C16.1882 19.1959 16.2164 19.1113 16.2587 19.0266C16.2869 18.942 16.3292 18.8574 16.3856 18.7728C16.4421 18.7023 16.4985 18.6318 16.5549 18.5613C17.0767 18.0395 18.0215 18.0395 18.5574 18.5613C18.6138 18.6318 18.6702 18.7023 18.7267 18.7728C18.7831 18.8574 18.8254 18.942 18.8536 19.0266C18.8959 19.1113 18.9241 19.1959 18.9382 19.2805C18.9523 19.3792 18.9664 19.4779 18.9664 19.5626C18.9664 19.9292 18.8113 20.2959 18.5574 20.5638C18.2895 20.8177 17.9369 20.9728 17.5561 20.9728Z"
        fill="#113DBC" />
    <path
        d="M12.6201 25.9092C12.4368 25.9092 12.2534 25.8669 12.0842 25.7964C11.915 25.7259 11.7599 25.6271 11.6188 25.5002C11.365 25.2323 11.2098 24.8656 11.2098 24.4989C11.2098 24.4143 11.2239 24.3156 11.238 24.231C11.2521 24.1323 11.2803 24.0476 11.3226 23.963C11.3508 23.8784 11.3932 23.7938 11.4496 23.7092C11.4919 23.6387 11.5624 23.5682 11.6188 23.4977C11.7599 23.3707 11.915 23.272 12.0842 23.2015C12.4227 23.0604 12.8176 23.0604 13.156 23.2015C13.3253 23.272 13.4804 23.3707 13.6214 23.4977C13.6778 23.5682 13.7483 23.6387 13.7906 23.7092C13.847 23.7938 13.8894 23.8784 13.9176 23.963C13.9599 24.0476 13.9881 24.1323 14.0022 24.231C14.0163 24.3156 14.0304 24.4143 14.0304 24.4989C14.0304 24.8656 13.8752 25.2323 13.6214 25.5002C13.4804 25.6271 13.3253 25.7259 13.156 25.7964C12.9868 25.8669 12.8034 25.9092 12.6201 25.9092Z"
        fill="#113DBC" />
    <path
        d="M29.5434 14.4011H5.56881C4.9906 14.4011 4.51111 13.9216 4.51111 13.3433C4.51111 12.7651 4.9906 12.2856 5.56881 12.2856H29.5434C30.1217 12.2856 30.6011 12.7651 30.6011 13.3433C30.6011 13.9216 30.1217 14.4011 29.5434 14.4011Z"
        fill="#113DBC" />
    <path
        d="M22.9434 32.6497C22.4075 32.6497 21.8998 32.4522 21.5331 32.0856C21.096 31.6484 20.8985 31.0137 20.9972 30.3509L21.2652 28.447C21.3357 27.9534 21.6319 27.3611 21.9844 27.0086L26.9768 22.0162C27.6537 21.3393 28.3166 20.9867 29.0358 20.9162C29.9243 20.8316 30.7845 21.1982 31.6025 22.0162C32.4627 22.8765 33.6192 24.6252 31.6025 26.6419L26.6101 31.6343C26.2576 31.9868 25.6652 32.283 25.1716 32.3535L23.2678 32.6215C23.1549 32.6356 23.0562 32.6497 22.9434 32.6497ZM29.2755 23.0175C29.2614 23.0175 29.2473 23.0175 29.2332 23.0175C29.0358 23.0316 28.7678 23.2149 28.4717 23.5111L23.4793 28.5035C23.437 28.5458 23.3665 28.6868 23.3665 28.7432L23.1126 30.5061L24.8755 30.2522C24.9319 30.2381 25.0729 30.1676 25.1152 30.1253L30.1076 25.1329C30.7281 24.5124 30.8127 24.2022 30.1076 23.497C29.8819 23.2855 29.5576 23.0175 29.2755 23.0175Z"
        fill="#113DBC" />
    <path
        d="M30.1359 27.6713C30.0371 27.6713 29.9384 27.6572 29.8538 27.629C27.9922 27.1072 26.5115 25.6264 25.9897 23.7649C25.8345 23.2007 26.1589 22.6225 26.723 22.4533C27.2871 22.2981 27.8653 22.6225 28.0345 23.1866C28.3589 24.3431 29.2756 25.2597 30.432 25.5841C30.9961 25.7392 31.3205 26.3316 31.1653 26.8957C31.0243 27.3611 30.6012 27.6713 30.1359 27.6713Z"
        fill="#113DBC" />
    <path
        d="M17.5561 32.6078H11.915C6.76748 32.6078 3.80591 29.6462 3.80591 24.4987V12.5114C3.80591 7.36392 6.76748 4.40234 11.915 4.40234H23.1971C28.3446 4.40234 31.3062 7.36392 31.3062 12.5114V17.4474C31.3062 18.0256 30.8267 18.5051 30.2485 18.5051C29.6703 18.5051 29.1908 18.0256 29.1908 17.4474V12.5114C29.1908 8.47803 27.2305 6.51775 23.1971 6.51775H11.915C7.88159 6.51775 5.92132 8.47803 5.92132 12.5114V24.4987C5.92132 28.5321 7.88159 30.4924 11.915 30.4924H17.5561C18.1343 30.4924 18.6138 30.9719 18.6138 31.5501C18.6138 32.1283 18.1343 32.6078 17.5561 32.6078Z"
        fill="#113DBC" />
</svg>
