<svg width="16" height="16" viewBox="0 0 16 16" fill="none" xmlns="http://www.w3.org/2000/svg">
<mask id="mask0_1285_18957" style="mask-type:alpha" maskUnits="userSpaceOnUse" x="0" y="0" width="16" height="16">
<rect width="16" height="16" fill="#D9D9D9"/>
</mask>
<g mask="url(#mask0_1285_18957)">
<path d="M7.99992 8.00052C7.85547 8.00052 7.73614 7.95319 7.64192 7.85852C7.54725 7.7643 7.49992 7.64496 7.49992 7.50052V2.11719C7.49992 1.97274 7.54725 1.85319 7.64192 1.75852C7.73614 1.6643 7.85547 1.61719 7.99992 1.61719C8.14436 1.61719 8.26392 1.6643 8.35858 1.75852C8.45281 1.85319 8.49992 1.97274 8.49992 2.11719V7.50052C8.49992 7.64496 8.45281 7.7643 8.35858 7.85852C8.26392 7.95319 8.14436 8.00052 7.99992 8.00052ZM7.99992 13.6672C7.21103 13.6672 6.47503 13.5172 5.79192 13.2172C5.10836 12.9172 4.51103 12.5116 3.99992 12.0005C3.48881 11.4894 3.08325 10.8921 2.78325 10.2085C2.48325 9.52541 2.33325 8.78941 2.33325 8.00052C2.33325 7.32274 2.44992 6.67274 2.68325 6.05052C2.91659 5.4283 3.24436 4.87274 3.66659 4.38385C3.75547 4.26163 3.86947 4.20319 4.00859 4.20852C4.14725 4.2143 4.27214 4.27274 4.38325 4.38385C4.47214 4.47274 4.51103 4.58385 4.49992 4.71719C4.48881 4.85052 4.44436 4.97274 4.36659 5.08385C4.03325 5.48385 3.7777 5.93385 3.59992 6.43385C3.42214 6.93385 3.33325 7.45608 3.33325 8.00052C3.33325 9.30052 3.78614 10.4032 4.69192 11.3085C5.59725 12.2143 6.69992 12.6672 7.99992 12.6672C9.29992 12.6672 10.4026 12.2143 11.3079 11.3085C12.2137 10.4032 12.6666 9.30052 12.6666 8.00052C12.6666 7.44496 12.5777 6.91719 12.3999 6.41719C12.2221 5.91719 11.9666 5.46719 11.6333 5.06719C11.5444 4.95608 11.4944 4.83652 11.4833 4.70852C11.4721 4.58097 11.511 4.47274 11.5999 4.38385C11.711 4.27274 11.8361 4.21719 11.9753 4.21719C12.1139 4.21719 12.2277 4.27274 12.3166 4.38385C12.7388 4.87274 13.0693 5.4283 13.3079 6.05052C13.547 6.67274 13.6666 7.32274 13.6666 8.00052C13.6666 8.78941 13.5166 9.52541 13.2166 10.2085C12.9166 10.8921 12.511 11.4894 11.9999 12.0005C11.4888 12.5116 10.8915 12.9172 10.2079 13.2172C9.52481 13.5172 8.78881 13.6672 7.99992 13.6672Z" fill="#EA0000"/>
</g>
</svg>
