<svg width="25" height="25" viewBox="0 0 25 25" fill="none" xmlns="http://www.w3.org/2000/svg">
<path d="M11.3644 2.3702L6.37442 4.24019C5.22442 4.67019 4.28442 6.03018 4.28442 7.26018V14.6902C4.28442 15.8702 5.06443 17.4202 6.01443 18.1302L10.3144 21.3402C11.7244 22.4002 14.0444 22.4002 15.4544 21.3402L19.7544 18.1302C20.7044 17.4202 21.4844 15.8702 21.4844 14.6902V7.26018C21.4844 6.03018 20.5444 4.67019 19.3944 4.24019L14.4044 2.3702C13.5544 2.0602 12.1944 2.0602 11.3644 2.3702Z" stroke="#937DEC" stroke-width="1.5" stroke-linecap="round" stroke-linejoin="round"/>
<path d="M12.8745 11.061C12.8345 11.061 12.7844 11.061 12.7444 11.061C11.8044 11.031 11.0544 10.251 11.0544 9.30103C11.0544 8.33103 11.8445 7.54102 12.8145 7.54102C13.7845 7.54102 14.5745 8.33103 14.5745 9.30103C14.5645 10.261 13.8145 11.031 12.8745 11.061Z" stroke="#937DEC" stroke-width="1.5" stroke-linecap="round" stroke-linejoin="round"/>
<path d="M10.8846 13.861C9.92455 14.501 9.92455 15.551 10.8846 16.191C11.9746 16.921 13.7646 16.921 14.8546 16.191C15.8146 15.551 15.8146 14.501 14.8546 13.861C13.7746 13.131 11.9846 13.131 10.8846 13.861Z" stroke="#937DEC" stroke-width="1.5" stroke-linecap="round" stroke-linejoin="round"/>
</svg>
