<svg width="20" height="25" viewBox="0 0 20 25" fill="none" xmlns="http://www.w3.org/2000/svg">
    <path
        d="M10.2353 0.92627C9.76519 0.926534 9.31437 1.11342 8.98193 1.44586C8.64948 1.77831 8.4626 2.22912 8.46234 2.69927V3.52127C6.9407 3.91362 5.59256 4.80043 4.62977 6.04234C3.66697 7.28426 3.14411 8.81087 3.14334 10.3823V17.4743L1.32834 18.8413C1.11256 18.9787 0.947193 19.1824 0.857056 19.4218C0.76692 19.6612 0.756884 19.9234 0.828454 20.169C0.900025 20.4146 1.04934 20.6303 1.25398 20.7838C1.45861 20.9373 1.70753 21.0203 1.96334 21.0203H18.5093C18.7654 21.0206 19.0147 20.9378 19.2197 20.7842C19.4247 20.6307 19.5742 20.4147 19.6458 20.1688C19.7175 19.9229 19.7073 19.6604 19.6168 19.4208C19.5264 19.1812 19.3606 18.9775 19.1443 18.8403L17.3273 17.4733V10.3823C17.3266 8.81087 16.8037 7.28426 15.8409 6.04234C14.8781 4.80043 13.53 3.91362 12.0083 3.52127V2.69927C12.0081 2.22912 11.8212 1.77831 11.4887 1.44586C11.1563 1.11342 10.7055 0.926534 10.2353 0.92627ZM7.87134 22.2033C7.87134 22.8302 8.1204 23.4315 8.56374 23.8749C9.00707 24.3182 9.60837 24.5673 10.2353 24.5673C10.8623 24.5673 11.4636 24.3182 11.9069 23.8749C12.3503 23.4315 12.5993 22.8302 12.5993 22.2033H7.87134Z"
        fill="#113DBC" />
</svg>
