<svg width="21" height="22" viewBox="0 0 21 22" fill="none" xmlns="http://www.w3.org/2000/svg">
<path d="M8.53952 10.0273C7.63464 10.0273 6.75008 9.75894 5.9977 9.25622C5.24532 8.75349 4.65891 8.03895 4.31262 7.20295C3.96634 6.36695 3.87574 5.44704 4.05227 4.55954C4.2288 3.67205 4.66455 2.85684 5.30439 2.21699C5.94424 1.57714 6.75946 1.1414 7.64695 0.964866C8.53444 0.788332 9.45436 0.878935 10.2904 1.22522C11.1264 1.5715 11.8409 2.15791 12.3436 2.91029C12.8463 3.66267 13.1147 4.54723 13.1147 5.45211C13.1147 6.66552 12.6327 7.82923 11.7746 8.68724C10.9166 9.54525 9.75293 10.0273 8.53952 10.0273ZM8.53952 2.23643C7.89318 2.23643 7.26135 2.42809 6.72393 2.78718C6.18652 3.14627 5.76765 3.65666 5.52031 4.2538C5.27296 4.85095 5.20825 5.50803 5.33434 6.14195C5.46044 6.77588 5.77168 7.35817 6.22872 7.81521C6.68575 8.27224 7.26805 8.58348 7.90197 8.70958C8.53589 8.83567 9.19297 8.77096 9.79012 8.52361C10.3873 8.27627 10.8976 7.8574 11.2567 7.31999C11.6158 6.78257 11.8075 6.15074 11.8075 5.5044C11.8075 5.07525 11.723 4.65029 11.5587 4.2538C11.3945 3.85731 11.1538 3.49706 10.8503 3.1936C10.5469 2.89014 10.1866 2.64942 9.79012 2.48519C9.39363 2.32096 8.96868 2.23643 8.53952 2.23643ZM12.18 10.8181C8.64306 10.0222 4.94281 10.4056 1.6441 11.9096C1.19044 12.1263 0.807673 12.4675 0.540377 12.8933C0.273081 13.3191 0.132256 13.8121 0.134299 14.3148V18.2037C0.134299 18.2896 0.151205 18.3746 0.184051 18.4539C0.216897 18.5332 0.265041 18.6052 0.325733 18.6659C0.386424 18.7266 0.458476 18.7747 0.537774 18.8076C0.617071 18.8404 0.702062 18.8573 0.787893 18.8573C0.873725 18.8573 0.958715 18.8404 1.03801 18.8076C1.11731 18.7747 1.18936 18.7266 1.25005 18.6659C1.31075 18.6052 1.35889 18.5332 1.39174 18.4539C1.42458 18.3746 1.44149 18.2896 1.44149 18.2037V14.3148C1.4358 14.0604 1.50451 13.8098 1.63919 13.5939C1.77387 13.3779 1.96866 13.206 2.19966 13.0992C4.18676 12.1817 6.35084 11.7109 8.53952 11.7201C9.76587 11.7185 10.988 11.8633 12.18 12.1515V10.8181ZM12.2715 17.0338H16.2846V17.9488H12.2715V17.0338Z" fill="#1F2D3D"/>
<path d="M19.4805 13.1515H16.1014V14.4587H18.8269V19.9293H9.56549V14.4587H13.6831V14.7332C13.6831 14.9065 13.752 15.0728 13.8746 15.1953C13.9971 15.3179 14.1634 15.3868 14.3367 15.3868C14.5101 15.3868 14.6763 15.3179 14.7989 15.1953C14.9215 15.0728 14.9903 14.9065 14.9903 14.7332V12.1907C14.9903 12.0174 14.9215 11.8511 14.7989 11.7285C14.6763 11.606 14.5101 11.5371 14.3367 11.5371C14.1634 11.5371 13.9971 11.606 13.8746 11.7285C13.752 11.8511 13.6831 12.0174 13.6831 12.1907V13.1515H8.91189C8.73855 13.1515 8.57231 13.2203 8.44973 13.3429C8.32716 13.4655 8.2583 13.6317 8.2583 13.8051V20.5829C8.2583 20.7562 8.32716 20.9224 8.44973 21.045C8.57231 21.1676 8.73855 21.2364 8.91189 21.2364H19.4805C19.6539 21.2364 19.8201 21.1676 19.9427 21.045C20.0652 20.9224 20.1341 20.7562 20.1341 20.5829V13.8051C20.1341 13.6317 20.0652 13.4655 19.9427 13.3429C19.8201 13.2203 19.6539 13.1515 19.4805 13.1515Z" fill="#1F2D3D"/>
</svg>
