<svg width="29" height="37" viewBox="0 0 29 37" fill="none" xmlns="http://www.w3.org/2000/svg">
<path d="M26.5249 4.30448C26.5743 4.36105 26.6459 4.39321 26.7204 4.39321C26.7959 4.39321 26.8669 4.36105 26.9168 4.30448L28.7256 2.48071C28.7941 2.40306 28.8107 2.29354 28.7685 2.19926C28.7256 2.10581 28.6318 2.04535 28.529 2.04535H27.8806L27.8804 0.75954C27.8809 0.614787 27.7644 0.498047 27.6197 0.498047H25.8217C25.6769 0.498047 25.5602 0.614787 25.5602 0.75954V2.04507H24.9122C24.8093 2.04507 24.7153 2.10552 24.6731 2.19897C24.6307 2.29325 24.6482 2.40279 24.7161 2.48043L26.5249 4.30448Z" fill="#EA6666"/>
<path d="M17.8434 16.7519C17.0955 15.9183 16.3571 14.9869 15.6918 14.1489C15.3782 13.7529 15.0782 13.3752 14.7972 13.0322L14.7764 13.0073C15.1874 11.8365 15.4225 10.8785 15.4749 10.1589C15.608 8.32594 15.4034 7.14519 14.8496 6.5501C14.4756 6.14746 13.9137 6.00715 13.3855 6.1849C13.007 6.31162 12.4945 6.65159 12.2017 7.54922C11.7652 8.88721 11.9768 11.2569 13.2177 13.2169C12.6639 14.6672 11.8919 16.3335 11.0392 17.9202C9.41532 18.4895 8.12092 19.2379 7.19196 20.1461C5.9782 21.3307 5.4849 22.5067 5.83793 23.3716C6.05533 23.9074 6.55832 24.2271 7.18281 24.2271C7.61761 24.2271 8.08791 24.0702 8.54323 23.7734C9.6926 23.022 11.1931 20.5188 11.9981 19.0683C13.6633 18.5483 15.3076 18.3357 16.1432 18.2549C16.5211 18.2183 16.8966 18.1892 17.2579 18.169C18.7204 19.7136 19.9166 20.5279 21.0187 20.7312C21.2405 20.7726 21.4623 20.7934 21.6789 20.7934C22.5771 20.7934 23.3191 20.4351 23.6655 19.8353C23.9267 19.3822 23.9214 18.8534 23.6508 18.3842C23.0393 17.3255 21.1939 16.7429 18.4545 16.7429C18.2576 16.7429 18.0541 16.7457 17.8433 16.7521L17.8434 16.7519ZM7.7808 22.6084C7.56339 22.7504 7.33989 22.835 7.18238 22.835C7.15244 22.835 7.13219 22.8319 7.12082 22.8289C7.09337 22.6902 7.19209 22.0902 8.164 21.1407C8.62043 20.6948 9.19752 20.2874 9.88107 19.9275C9.0187 21.3148 8.24279 22.3067 7.7808 22.6084ZM13.5239 7.98126C13.6254 7.67069 13.751 7.53037 13.8292 7.50431C13.8312 7.50403 13.8328 7.5032 13.8345 7.50264C13.9099 7.58777 14.2313 8.07388 14.0874 10.0591C14.0624 10.4054 13.9781 10.843 13.8361 11.3629C13.3717 10.1675 13.2441 8.83894 13.5239 7.98126ZM16.0091 16.8704C15.2689 16.9417 14.1414 17.0884 12.8837 17.3859C13.3714 16.412 13.8231 15.4249 14.2003 14.51C14.3312 14.6739 14.4651 14.842 14.601 15.0142C15.056 15.5879 15.5673 16.2326 16.0973 16.8624L16.0091 16.8704ZM22.4446 19.08C22.4654 19.1157 22.4648 19.1301 22.4596 19.1396C22.4011 19.2411 22.1368 19.4019 21.6768 19.4019C21.5484 19.4019 21.4117 19.3889 21.2705 19.3625C20.6965 19.2563 20.0271 18.8595 19.229 18.1521C21.3945 18.2555 22.2693 18.7774 22.4446 19.08Z" fill="#EA6666"/>
<path d="M20.7918 0.498047H2.79123C1.68814 0.498047 0.791626 1.39208 0.791626 2.49793V34.2759C0.791626 35.3806 1.68814 36.2758 2.79123 36.2758H26.7917C27.8973 36.2758 28.7913 35.3807 28.7913 34.2759V8.49788L20.7918 0.498047ZM20.7918 3.32566L25.9642 8.49809H20.7918V3.32566ZM26.7922 34.2766H2.79173V2.49793H18.7918V8.49788C18.7918 9.6026 19.6864 10.4978 20.7914 10.4978H26.7919V34.2761L26.7922 34.2766Z" fill="#EA6666"/>
<path d="M11.4871 26.0829C11.3238 25.9387 11.1277 25.8336 10.9051 25.772C10.6851 25.7091 10.3704 25.6775 9.96914 25.6775H8.63782C8.38465 25.6775 8.19387 25.7354 8.07019 25.8511C7.94541 25.9678 7.88135 26.1572 7.88135 26.4129V30.3613C7.88135 30.5912 7.93819 30.7701 8.05022 30.894C8.16419 31.0213 8.31615 31.0859 8.50139 31.0859C8.67858 31.0859 8.82805 31.021 8.94507 30.8932C9.05959 30.7676 9.1181 30.5862 9.1181 30.3544V29.004H9.96911C10.6263 29.004 11.131 28.8604 11.4687 28.577C11.8123 28.2899 11.9867 27.8654 11.9867 27.3147C11.9867 27.0582 11.9446 26.8239 11.8608 26.617C11.7765 26.4079 11.6509 26.2285 11.4871 26.083L11.4871 26.0829ZM10.6269 27.7339C10.5526 27.8341 10.4464 27.9045 10.3017 27.9497C10.1478 27.9974 9.95171 28.0221 9.71795 28.0221H9.11871V26.6552H9.71822C10.2584 26.6552 10.4774 26.7631 10.5645 26.8507C10.6807 26.9747 10.737 27.1333 10.737 27.3349C10.737 27.5013 10.6999 27.6355 10.6269 27.7339Z" fill="#EA6666"/>
<path d="M16.4051 26.164C16.1893 25.9752 15.945 25.8443 15.6796 25.7755C15.4212 25.7087 15.1078 25.6746 14.7498 25.6746H13.3977C13.1476 25.6746 12.9607 25.7345 12.842 25.854C12.723 25.9732 12.6626 26.1601 12.6626 26.4097V30.1657C12.6626 30.3418 12.6781 30.4829 12.71 30.5963C12.7461 30.725 12.824 30.8256 12.9413 30.8952C13.053 30.9629 13.2097 30.9953 13.4188 30.9953H14.7709C15.0102 30.9953 15.229 30.9798 15.4209 30.9488C15.6164 30.9169 15.8022 30.8614 15.9722 30.7838C16.1438 30.7056 16.3038 30.5996 16.4488 30.4693C16.6305 30.3024 16.7819 30.1102 16.8989 29.8975C17.0145 29.6857 17.1016 29.4453 17.1565 29.1835C17.2114 28.9242 17.2391 28.6336 17.2391 28.3208C17.2386 27.3639 16.9577 26.6379 16.4051 26.164ZM15.5014 29.7567C15.4343 29.8152 15.3536 29.862 15.2612 29.895C15.1647 29.9291 15.0707 29.951 14.9815 29.9594C14.8872 29.9682 14.7541 29.9729 14.5855 29.9729H13.8986V26.6947H14.4843C14.7907 26.6947 15.0535 26.728 15.2657 26.7937C15.464 26.8541 15.6351 27.0008 15.7737 27.2307C15.916 27.4656 15.9883 27.8302 15.9883 28.3147C15.9886 28.9982 15.825 29.4827 15.5014 29.7567Z" fill="#EA6666"/>
<path d="M21.4248 25.2458H18.9791C18.816 25.2458 18.684 25.27 18.5759 25.3199C18.4602 25.3723 18.374 25.4577 18.3191 25.5744C18.2681 25.6834 18.2437 25.8165 18.2437 25.9815V29.9228C18.2437 30.1602 18.3016 30.3426 18.415 30.4649C18.5307 30.5905 18.6818 30.6546 18.864 30.6546C19.0426 30.6546 19.1923 30.5916 19.3093 30.4674C19.423 30.3446 19.4807 30.1613 19.4807 29.9228V28.3347H21.0898C21.2698 28.3347 21.411 28.2915 21.5086 28.2052C21.6101 28.1157 21.6614 27.9956 21.6614 27.8478C21.6614 27.7003 21.6112 27.5799 21.5119 27.4901C21.4154 27.4019 21.2734 27.3572 21.0901 27.3572H19.481V26.2458H21.4257C21.6162 26.2458 21.7629 26.2001 21.8619 26.1094C21.9634 26.0171 22.0147 25.8942 22.0147 25.7445C22.0147 25.5978 21.9634 25.4761 21.8616 25.3823C21.7607 25.2911 21.6145 25.2458 21.4248 25.2458Z" fill="#EA6666"/>
</svg>
