<svg width="20" height="18" viewBox="0 0 20 18" fill="none" xmlns="http://www.w3.org/2000/svg">
<path d="M0.80127 3.90299V15.903C0.80127 16.2566 0.941745 16.5958 1.19179 16.8458C1.44184 17.0959 1.78098 17.2363 2.1346 17.2363H18.1346C18.4882 17.2363 18.8274 17.0959 19.0774 16.8458C19.3275 16.5958 19.4679 16.2566 19.4679 15.903V5.23633C19.4679 4.88271 19.3275 4.54357 19.0774 4.29352C18.8274 4.04347 18.4882 3.90299 18.1346 3.90299H4.1346M0.80127 3.90299V2.56966C0.80127 2.21604 0.941745 1.8769 1.19179 1.62685C1.44184 1.3768 1.78098 1.23633 2.1346 1.23633H12.8013C13.1549 1.23633 13.494 1.3768 13.7441 1.62685C13.9941 1.8769 14.1346 2.21604 14.1346 2.56966V3.90299H4.1346M0.80127 3.90299H4.1346M12.1346 11.903H16.1346" stroke="#1F2D3D"/>
</svg>
