<svg width="22" height="22" viewBox="0 0 22 22" fill="none" xmlns="http://www.w3.org/2000/svg">
<path d="M1.13428 7.52256H21.1343M3.63428 2.95117H18.6343C19.2973 2.95117 19.9332 3.19199 20.402 3.62064C20.8709 4.04929 21.1343 4.63066 21.1343 5.23687V18.951C21.1343 19.5572 20.8709 20.1386 20.402 20.5673C19.9332 20.9959 19.2973 21.2367 18.6343 21.2367H3.63428C2.97124 21.2367 2.33535 20.9959 1.86651 20.5673C1.39767 20.1386 1.13428 19.5572 1.13428 18.951V5.23687C1.13428 4.63066 1.39767 4.04929 1.86651 3.62064C2.33535 3.19199 2.97124 2.95117 3.63428 2.95117Z" stroke="#1F2D3D" stroke-linecap="round" stroke-linejoin="round"/>
<path d="M8.00928 14.3786L9.54689 15.7844C9.73791 15.9591 10.0306 15.9591 10.2217 15.7844L14.8843 11.5215" stroke="#1F2D3D" stroke-linecap="round"/>
<path d="M5.50928 2.37918V1.23633" stroke="#1F2D3D" stroke-linecap="square"/>
<path d="M16.7603 2.37918V1.23633" stroke="#1F2D3D" stroke-linecap="square"/>
</svg>
