<svg width="35" height="35" viewBox="0 0 35 35" fill="none" xmlns="http://www.w3.org/2000/svg">
    <path
        d="M25.4092 32.9237H17.6809C17.1027 32.9237 16.6232 32.4442 16.6232 31.866C16.6232 31.2878 17.1027 30.8083 17.6809 30.8083H25.4092C27.7503 30.8083 29.6541 28.9044 29.6541 26.5634V25.9428H28.0323C25.9028 25.9428 24.0976 24.3633 23.9284 22.3325C23.8156 21.162 24.2387 20.0197 25.0848 19.1877C25.8041 18.4543 26.7913 18.0453 27.849 18.0453H29.64V17.0723C29.64 14.7312 27.7361 12.8273 25.3951 12.8273H9.20517C6.86412 12.8273 4.96026 14.7312 4.96026 17.0723V19.512C4.96026 20.0902 4.48076 20.5697 3.90255 20.5697C3.32434 20.5697 2.84485 20.0902 2.84485 19.512V17.0723C2.84485 13.5607 5.69359 10.7119 9.20517 10.7119H25.3951C28.9067 10.7119 31.7554 13.5607 31.7554 17.0723V19.1031C31.7554 19.6813 31.2759 20.1608 30.6977 20.1608H27.849C27.3554 20.1608 26.9041 20.3441 26.5797 20.6825C26.1708 21.0774 25.9733 21.6133 26.0297 22.1492C26.1143 23.08 27.0028 23.8274 28.0182 23.8274H30.6977C31.2759 23.8274 31.7554 24.3069 31.7554 24.8851V26.5634C31.7695 30.0749 28.9208 32.9237 25.4092 32.9237Z"
        fill="#113DBC" />
    <path
        d="M3.91622 19.3997C3.33801 19.3997 2.85852 18.9202 2.85852 18.342V11.8971C2.85852 9.7958 4.18418 7.89185 6.14446 7.14441L17.342 2.91359C18.4984 2.47641 19.7818 2.63161 20.7831 3.33674C21.7985 4.04188 22.3908 5.18419 22.3908 6.41113V11.7701C22.3908 12.3484 21.9113 12.8278 21.3331 12.8278C20.7549 12.8278 20.2754 12.3484 20.2754 11.7701V6.41113C20.2754 5.87522 20.0215 5.38161 19.5703 5.07135C19.119 4.76109 18.583 4.69057 18.0753 4.88801L6.8778 9.11883C5.73548 9.55601 4.95983 10.6702 4.95983 11.8971V18.342C4.97394 18.9343 4.49444 19.3997 3.91622 19.3997Z"
        fill="#113DBC" />
    <path
        d="M28.0319 25.9429C25.9024 25.9429 24.0972 24.3634 23.928 22.3326C23.8152 21.1621 24.2382 20.0198 25.0844 19.1877C25.8036 18.4544 26.7908 18.0454 27.8485 18.0454H30.7819C32.1781 18.0877 33.2499 19.1877 33.2499 20.5415V23.4468C33.2499 24.8006 32.1781 25.9006 30.8242 25.9429H28.0319ZM30.7537 20.1608H27.8626C27.369 20.1608 26.9178 20.3441 26.5934 20.6826C26.1844 21.0775 25.987 21.6134 26.0434 22.1493C26.128 23.08 27.0165 23.8275 28.0319 23.8275H30.796C30.9793 23.8275 31.1486 23.6583 31.1486 23.4468V20.5415C31.1486 20.33 30.9793 20.1749 30.7537 20.1608Z"
        fill="#113DBC" />
    <path
        d="M20.1344 18.8215H10.2625C9.68433 18.8215 9.20483 18.342 9.20483 17.7638C9.20483 17.1855 9.68433 16.7061 10.2625 16.7061H20.1344C20.7127 16.7061 21.1921 17.1855 21.1921 17.7638C21.1921 18.342 20.7127 18.8215 20.1344 18.8215Z"
        fill="#113DBC" />
    <path
        d="M13.7882 28.6087C13.21 28.6087 12.7305 28.1292 12.7305 27.551V25.7458C12.7305 25.4356 12.4766 25.1677 12.1523 25.1677H4.62142C4.04321 25.1677 3.56372 24.6882 3.56372 24.11C3.56372 23.5317 4.04321 23.0522 4.62142 23.0522H12.1523C13.6331 23.0522 14.8459 24.265 14.8459 25.7458V27.551C14.8459 28.1292 14.3664 28.6087 13.7882 28.6087Z"
        fill="#113DBC" />
    <path
        d="M6.34185 26.8879C6.0739 26.8879 5.80595 26.7892 5.59441 26.5776L3.87387 24.8572C3.46489 24.4482 3.46489 23.7712 3.87387 23.3622L5.59441 21.6417C6.00339 21.2327 6.68031 21.2327 7.08929 21.6417C7.49827 22.0507 7.49827 22.7276 7.08929 23.1366L6.1162 24.1097L7.08929 25.0828C7.49827 25.4917 7.49827 26.1687 7.08929 26.5776C6.87775 26.7892 6.6098 26.8879 6.34185 26.8879Z"
        fill="#113DBC" />
    <path
        d="M13.7882 32.6136H6.25735C4.77656 32.6136 3.56372 31.4007 3.56372 29.9199V28.1148C3.56372 27.5366 4.04321 27.0571 4.62142 27.0571C5.19964 27.0571 5.67913 27.5366 5.67913 28.1148V29.9199C5.67913 30.2302 5.93298 30.4982 6.25735 30.4982H13.7882C14.3664 30.4982 14.8459 30.9777 14.8459 31.5559C14.8459 32.1341 14.3664 32.6136 13.7882 32.6136Z"
        fill="#113DBC" />
    <path
        d="M12.068 34.3342C11.8 34.3342 11.5321 34.2355 11.3205 34.0239C10.9115 33.615 10.9115 32.9379 11.3205 32.529L12.2936 31.556L11.3205 30.5829C10.9115 30.1739 10.9115 29.497 11.3205 29.088C11.7295 28.679 12.4064 28.679 12.8154 29.088L14.5359 30.8085C14.9449 31.2175 14.9449 31.8944 14.5359 32.3034L12.8154 34.0239C12.618 34.2355 12.3359 34.3342 12.068 34.3342Z"
        fill="#113DBC" />
</svg>
