<svg width="81" height="81" viewBox="0 0 81 81" fill="none" xmlns="http://www.w3.org/2000/svg">
    <circle cx="40.9238" cy="40.126" r="40" fill="#E3FEEF" />
    <path
        d="M58.6594 38.1881L56.1661 35.2914C55.6894 34.7414 55.3044 33.7147 55.3044 32.9814V29.8647C55.3044 27.9214 53.7094 26.3264 51.7661 26.3264H48.6494C47.9344 26.3264 46.8894 25.9414 46.3394 25.4647L43.4428 22.9714C42.1778 21.8897 40.1061 21.8897 38.8228 22.9714L35.9444 25.4831C35.3944 25.9414 34.3494 26.3264 33.6344 26.3264H30.4628C28.5194 26.3264 26.9244 27.9214 26.9244 29.8647V32.9997C26.9244 33.7147 26.5394 34.7414 26.0811 35.2914L23.6061 38.2064C22.5428 39.4714 22.5428 41.5247 23.6061 42.7897L26.0811 45.7047C26.5394 46.2547 26.9244 47.2814 26.9244 47.9964V51.1314C26.9244 53.0747 28.5194 54.6697 30.4628 54.6697H33.6344C34.3494 54.6697 35.3944 55.0547 35.9444 55.5314L38.8411 58.0247C40.1061 59.1064 42.1778 59.1064 43.4611 58.0247L46.3578 55.5314C46.9078 55.0547 47.9344 54.6697 48.6678 54.6697H51.7844C53.7278 54.6697 55.3228 53.0747 55.3228 51.1314V48.0147C55.3228 47.2997 55.7078 46.2547 56.1844 45.7047L58.6778 42.8081C59.7411 41.5431 59.7411 39.4531 58.6594 38.1881ZM48.7594 37.0331L39.9044 45.8881C39.6478 46.1447 39.2994 46.2914 38.9328 46.2914C38.5661 46.2914 38.2178 46.1447 37.9611 45.8881L33.5244 41.4514C32.9928 40.9197 32.9928 40.0397 33.5244 39.5081C34.0561 38.9764 34.9361 38.9764 35.4678 39.5081L38.9328 42.9731L46.8161 35.0897C47.3478 34.5581 48.2278 34.5581 48.7594 35.0897C49.2911 35.6214 49.2911 36.5014 48.7594 37.0331Z"
        fill="#1F9A53" />
</svg>
