<svg width="17" height="17" viewBox="0 0 17 17" fill="none" xmlns="http://www.w3.org/2000/svg">
    <path
        d="M15.4603 3.7194L10.2297 0.975404C9.3755 0.527404 8.31882 0.527404 7.45586 0.975404L2.23406 3.7194C1.37991 4.1674 0.851562 4.9994 0.851562 5.9034V11.3754C0.851562 12.2714 1.37991 13.1034 2.23406 13.5594L7.46466 16.3034C8.31882 16.7514 9.3755 16.7514 10.2385 16.3034L15.4691 13.5594C16.3232 13.1114 16.8516 12.2794 16.8516 11.3754V5.9034C16.8428 4.9994 16.3144 4.1754 15.4603 3.7194ZM8.18673 5.2394C8.18673 4.9114 8.48612 4.6394 8.84716 4.6394C9.20819 4.6394 9.50759 4.9114 9.50759 5.2394V9.4394C9.50759 9.7674 9.20819 10.0394 8.84716 10.0394C8.48612 10.0394 8.18673 9.7674 8.18673 9.4394V5.2394ZM9.65729 12.3434C9.61326 12.4394 9.55162 12.5274 9.47237 12.6074C9.30506 12.7594 9.08491 12.8394 8.84716 12.8394C8.73269 12.8394 8.61821 12.8154 8.51254 12.7754C8.39807 12.7354 8.31001 12.6794 8.22195 12.6074C8.1427 12.5274 8.08106 12.4394 8.02823 12.3434C7.9842 12.2474 7.96659 12.1434 7.96659 12.0394C7.96659 11.8314 8.05464 11.6234 8.22195 11.4714C8.31001 11.3994 8.39807 11.3434 8.51254 11.3034C8.83835 11.1754 9.22581 11.2474 9.47237 11.4714C9.55162 11.5514 9.61326 11.6314 9.65729 11.7354C9.70131 11.8314 9.72773 11.9354 9.72773 12.0394C9.72773 12.1434 9.70131 12.2474 9.65729 12.3434Z"
        fill="#F9A63A" />
</svg>
