<svg width="28" height="37" viewBox="0 0 28 37" fill="none" xmlns="http://www.w3.org/2000/svg">
<path d="M25.7332 4.10135C25.7826 4.15792 25.8541 4.19009 25.9287 4.19009C26.0041 4.19009 26.0751 4.15792 26.125 4.10135L27.9338 2.27759C28.0023 2.19994 28.0189 2.09041 27.9768 1.99613C27.9338 1.90268 27.8401 1.84223 27.7372 1.84223H27.0889L27.0886 0.556415C27.0892 0.411662 26.9727 0.294922 26.8279 0.294922H25.0299C24.8852 0.294922 24.7685 0.411662 24.7685 0.556415V1.84194H24.1204C24.0175 1.84194 23.9235 1.9024 23.8814 1.99585C23.8389 2.09013 23.8564 2.19966 23.9244 2.2773L25.7332 4.10135Z" fill="#EA6666"/>
<path d="M17.0517 16.549C16.3038 15.7155 15.5653 14.784 14.9001 13.946C14.5864 13.55 14.2864 13.1724 14.0055 12.8294L13.9847 12.8044C14.3956 11.6337 14.6308 10.6756 14.6832 9.95598C14.8163 8.12306 14.6116 6.94231 14.0579 6.34721C13.6838 5.94458 13.122 5.80427 12.5937 5.98201C12.2152 6.10874 11.7028 6.44871 11.4099 7.34634C10.9735 8.68433 11.1851 11.0541 12.4259 13.0141C11.8722 14.4644 11.1001 16.1306 10.2474 17.7173C8.62357 18.2866 7.32917 19.035 6.40022 19.9432C5.18645 21.1278 4.69316 22.3038 5.04618 23.1687C5.26358 23.7045 5.76657 24.0242 6.39106 24.0242C6.82586 24.0242 7.29616 23.8673 7.75148 23.5706C8.90085 22.8191 10.4013 20.3159 11.2063 18.8654C12.8715 18.3454 14.5159 18.1328 15.3514 18.0521C15.7294 18.0155 16.1048 17.9863 16.4662 17.9661C17.9287 19.5107 19.1249 20.3251 20.2269 20.5284C20.4488 20.5697 20.6706 20.5905 20.8872 20.5905C21.7853 20.5905 22.5274 20.2322 22.8737 19.6324C23.1349 19.1793 23.1297 18.6505 22.859 18.1813C22.2476 17.1226 20.4022 16.54 17.6627 16.54C17.4659 16.54 17.2623 16.5428 17.0516 16.5492L17.0517 16.549ZM6.98905 22.4056C6.77165 22.5475 6.54815 22.6321 6.39064 22.6321C6.36069 22.6321 6.34045 22.6291 6.32908 22.626C6.30162 22.4874 6.40034 21.8873 7.37225 20.9378C7.82869 20.4919 8.40577 20.0845 9.08932 19.7246C8.22695 21.112 7.45104 22.1039 6.98905 22.4056ZM12.7322 7.77838C12.8336 7.46781 12.9593 7.32749 13.0375 7.30142C13.0394 7.30115 13.0411 7.30031 13.0427 7.29976C13.1182 7.38489 13.4395 7.871 13.2956 9.8562C13.2707 10.2025 13.1864 10.6401 13.0444 11.16C12.5799 9.9646 12.4524 8.63606 12.7322 7.77838ZM15.2173 16.6676C14.4772 16.7388 13.3497 16.8855 12.0919 17.1831C12.5797 16.2092 13.0314 15.222 13.4085 14.3072C13.5394 14.4711 13.6734 14.6391 13.8092 14.8113C14.2643 15.385 14.7756 16.0297 15.3055 16.6595L15.2173 16.6676ZM21.6528 18.8771C21.6736 18.9128 21.6731 18.9273 21.6678 18.9367C21.6093 19.0382 21.345 19.199 20.885 19.199C20.7566 19.199 20.6199 19.186 20.4788 19.1596C19.9048 19.0534 19.2354 18.6566 18.4373 17.9492C20.6027 18.0526 21.4776 18.5746 21.6528 18.8771Z" fill="#EA6666"/>
<path d="M20.0001 0.294922H1.9996C0.896513 0.294922 0 1.18895 0 2.29481V34.0728C0 35.1775 0.896513 36.0727 1.9996 36.0727H26.0001C27.1057 36.0727 27.9997 35.1776 27.9997 34.0728V8.29475L20.0001 0.294922ZM20.0001 3.12253L25.1726 8.29497H20.0001V3.12253ZM26.0006 34.0735H2.0001V2.29481H18.0002V8.29475C18.0002 9.39948 18.8948 10.2946 19.9998 10.2946H26.0002V34.0729L26.0006 34.0735Z" fill="#EA6666"/>
<path d="M10.6956 25.88C10.5323 25.7358 10.3362 25.6307 10.1135 25.5692C9.89365 25.5062 9.57892 25.4746 9.17764 25.4746H7.84632C7.59315 25.4746 7.40236 25.5326 7.27869 25.6482C7.1539 25.7649 7.08984 25.9543 7.08984 26.21V30.1585C7.08984 30.3883 7.14669 30.5672 7.25872 30.6911C7.37269 30.8184 7.52465 30.883 7.70989 30.883C7.88708 30.883 8.03655 30.8181 8.15356 30.6903C8.26809 30.5647 8.3266 30.3833 8.3266 30.1515V28.8011H9.17761C9.8348 28.8011 10.3395 28.6575 10.6772 28.3741C11.0208 28.0871 11.1952 27.6626 11.1952 27.1118C11.1952 26.8553 11.1531 26.621 11.0693 26.4141C10.985 26.2051 10.8594 26.0257 10.6955 25.8801L10.6956 25.88ZM9.83543 27.5311C9.76111 27.6312 9.65491 27.7016 9.51016 27.7468C9.35626 27.7945 9.16021 27.8192 8.92644 27.8192H8.3272V26.4524H8.92672C9.4669 26.4524 9.68594 26.5602 9.77304 26.6479C9.88923 26.7718 9.94553 26.9304 9.94553 27.132C9.94553 27.2984 9.90836 27.4326 9.83543 27.5311Z" fill="#EA6666"/>
<path d="M15.6136 25.9601C15.3978 25.7713 15.1535 25.6404 14.8881 25.5716C14.6297 25.5048 14.3163 25.4707 13.9583 25.4707H12.6062C12.3561 25.4707 12.1692 25.5306 12.0505 25.6501C11.9315 25.7694 11.8711 25.9563 11.8711 26.2058V29.9618C11.8711 30.1379 11.8866 30.279 11.9185 30.3925C11.9546 30.5211 12.0325 30.6218 12.1498 30.6914C12.2615 30.759 12.4182 30.7915 12.6273 30.7915H13.9794C14.2187 30.7915 14.4375 30.776 14.6294 30.7449C14.8249 30.713 15.0107 30.6576 15.1807 30.5799C15.3523 30.5017 15.5123 30.3958 15.6573 30.2655C15.839 30.0985 15.9904 29.9064 16.1074 29.6937C16.223 29.4818 16.3101 29.2414 16.365 28.9796C16.4199 28.7203 16.4476 28.4297 16.4476 28.1169C16.4471 27.16 16.1662 26.4341 15.6136 25.9601ZM14.7099 29.5528C14.6428 29.6113 14.5621 29.6582 14.4697 29.6912C14.3732 29.7253 14.2792 29.7472 14.1899 29.7555C14.0957 29.7644 13.9626 29.7691 13.794 29.7691H13.1071V26.4908H13.6928C13.9992 26.4908 14.262 26.5241 14.4742 26.5898C14.6725 26.6503 14.8436 26.797 14.9822 27.0269C15.1245 27.2617 15.1968 27.6264 15.1968 28.1108C15.1971 28.7944 15.0335 29.2789 14.7099 29.5528Z" fill="#EA6666"/>
<path d="M20.6333 25.043H18.1875C18.0245 25.043 17.8925 25.0671 17.7844 25.117C17.6687 25.1694 17.5825 25.2548 17.5276 25.3716C17.4766 25.4805 17.4521 25.6137 17.4521 25.7786V29.7199C17.4521 29.9573 17.5101 30.1398 17.6235 30.262C17.7392 30.3877 17.8903 30.4517 18.0725 30.4517C18.251 30.4517 18.4008 30.3888 18.5178 30.2645C18.6315 30.1417 18.6892 29.9584 18.6892 29.7199V28.1318H20.2983C20.4783 28.1318 20.6195 28.0886 20.7171 28.0023C20.8186 27.9128 20.8699 27.7927 20.8699 27.6449C20.8699 27.4974 20.8197 27.377 20.7204 27.2872C20.6239 27.199 20.4819 27.1544 20.2986 27.1544H18.6894V26.043H20.6342C20.8247 26.043 20.9714 25.9972 21.0704 25.9065C21.1719 25.8142 21.2232 25.6913 21.2232 25.5416C21.2232 25.3949 21.1719 25.2732 21.0701 25.1795C20.9692 25.0882 20.823 25.043 20.6333 25.043Z" fill="#EA6666"/>
</svg>
